<svg width="42" height="13" viewBox="0 0 42 13" fill="none" xmlns="http://www.w3.org/2000/svg">
<path d="M40.5775 12.4697C41.359 11.9204 41.5516 10.8376 40.9534 10.0929C38.7368 7.33285 35.9951 5.0311 32.8811 3.32405C29.2607 1.33939 25.2334 0.211449 21.1088 0.0269661C16.9842 -0.157516 12.8722 0.606373 9.08907 2.25989C5.8351 3.68212 2.89894 5.72992 0.444708 8.28101C-0.217546 8.9694 -0.122435 10.0651 0.606936 10.6819C1.33631 11.2987 2.42325 11.2024 3.09195 10.5203C5.20009 8.36984 7.70527 6.63988 10.4744 5.42954C13.7729 3.98787 17.358 3.32185 20.9542 3.4827C24.5504 3.64354 28.0617 4.62697 31.2183 6.35736C33.8684 7.81009 36.2091 9.75679 38.1169 12.0869C38.722 12.826 39.796 13.0189 40.5775 12.4697Z" fill="#06C44F"/>
</svg>
