<svg width="54" height="54" viewBox="0 0 54 54" fill="none" xmlns="http://www.w3.org/2000/svg">
<path d="M54 27C54 41.9117 41.9117 54 27 54C12.0883 54 0 41.9117 0 27C0 12.0883 12.0883 0 27 0C41.9117 0 54 12.0883 54 27ZM3.25347 27C3.25347 40.1148 13.8852 50.7465 27 50.7465C40.1148 50.7465 50.7465 40.1148 50.7465 27C50.7465 13.8852 40.1148 3.25347 27 3.25347C13.8852 3.25347 3.25347 13.8852 3.25347 27Z" fill="#A5A5A5" fill-opacity="0.32"/>
<path d="M52.2704 27C53.2256 27 54.0058 27.7752 53.9446 28.7285C53.6545 33.2518 52.2293 37.6394 49.7884 41.4806C47.0377 45.8095 43.1109 49.2654 38.4675 51.4437C33.8242 53.6221 28.6565 54.4329 23.5691 53.7811C18.4818 53.1294 13.6853 51.0422 9.74108 47.7637C5.79682 44.4852 2.86795 40.151 1.29726 35.2686C-0.273435 30.3861 -0.420975 25.1572 0.871907 20.1939C2.16479 15.2306 4.8446 10.7383 8.59772 7.24257C11.928 4.14068 15.9812 1.93743 20.3752 0.825336C21.3013 0.590966 22.206 1.21625 22.3806 2.15538C22.5553 3.09451 21.9332 3.99108 21.0095 4.23415C17.261 5.22049 13.8047 7.11992 10.9554 9.77385C7.68311 12.8217 5.34662 16.7385 4.21938 21.0659C3.09214 25.3933 3.22078 29.9523 4.59024 34.2092C5.9597 38.4662 8.51332 42.245 11.9523 45.1035C15.3912 47.9619 19.5731 49.7818 24.0087 50.35C28.4443 50.9182 32.9499 50.2113 36.9983 48.312C41.0468 46.4128 44.4705 43.3997 46.8688 39.6254C48.9572 36.3389 50.1928 32.5937 50.4773 28.7281C50.5474 27.7754 51.3152 27 52.2704 27Z" fill="#55C5FC"/>
<path d="M26.8744 19.0988L26.5447 19.6L26.2148 19.0988C26.415 18.9671 26.6743 18.9671 26.8744 19.0988Z" fill="#55C5FC"/>
<path fill-rule="evenodd" clip-rule="evenodd" d="M26.2154 19.0986C26.2154 19.0986 26.2154 19.0986 26.5452 19.5999C26.875 19.0986 26.875 19.0986 26.875 19.0986L26.8758 19.0992L26.8771 19.1001L26.8815 19.103L26.8967 19.1131C26.9097 19.1218 26.9282 19.1343 26.9519 19.1506C26.9994 19.1831 27.0678 19.2305 27.154 19.2921C27.3264 19.4152 27.5706 19.5951 27.8629 19.8257C28.4462 20.286 29.2257 20.9518 30.0071 21.7733C31.5466 23.3915 33.1997 25.7239 33.1997 28.3453C33.1997 32.0205 30.2204 34.9999 26.5452 34.9999C22.87 34.9999 19.8906 32.0205 19.8906 28.3453C19.8906 25.7239 21.5438 23.3915 23.0832 21.7733C23.8646 20.9518 24.6441 20.286 25.2275 19.8257C25.5197 19.5951 25.7639 19.4152 25.9363 19.2921C26.0226 19.2305 26.0909 19.1831 26.1384 19.1506C26.1622 19.1343 26.1806 19.1218 26.1936 19.1131L26.2088 19.103L26.2132 19.1001L26.2154 19.0986ZM26.5452 20.3324C26.3945 20.4417 26.1986 20.588 25.9708 20.7677C25.419 21.2031 24.6848 21.8308 23.9526 22.6004C22.4648 24.1644 21.0906 26.2048 21.0906 28.3453C21.0906 31.3578 23.5327 33.7999 26.5452 33.7999C29.5576 33.7999 31.9997 31.3578 31.9997 28.3453C31.9997 26.2048 30.6256 24.1644 29.1378 22.6004C28.4055 21.8308 27.6714 21.2031 27.1195 20.7677C26.8918 20.588 26.6959 20.4417 26.5452 20.3324Z" fill="#55C5FC"/>
</svg>
