<svg width="24" height="24" viewBox="0 0 24 24" fill="none" xmlns="http://www.w3.org/2000/svg">
<rect width="24" height="24" rx="2.72727" fill="#06C44F"/>
<path d="M18.6673 6.66675V7.05727C18.6673 7.16968 18.6673 7.22589 18.6644 7.28004C18.6397 7.73503 18.4604 8.16795 18.1561 8.50715C18.1199 8.54752 18.0801 8.58726 18.0007 8.66675C17.9212 8.74623 17.8815 8.78597 17.8411 8.82219C17.5019 9.12646 17.0689 9.30578 16.6139 9.33047C16.5598 9.33341 16.5036 9.33341 16.3912 9.33341H14.9435C14.8311 9.33341 14.7749 9.33341 14.7207 9.33047C14.2657 9.30578 13.8328 9.12646 13.4936 8.82219C13.4532 8.78597 13.4135 8.74623 13.334 8.66675" stroke="white" stroke-width="1.5" stroke-linecap="round" stroke-linejoin="round"/>
<path d="M17.666 9L17.3327 10.6667L16.8712 12.2818C16.7351 12.7583 16.666 13.2514 16.666 13.7469V13.9543C16.666 14.2067 16.6839 14.4587 16.7196 14.7085L16.9993 17.3333" stroke="white" stroke-width="1.5" stroke-linecap="round" stroke-linejoin="round"/>
<path d="M6.33398 9L6.66732 10.6667L7.12878 12.2818C7.26492 12.7583 7.33398 13.2514 7.33398 13.7469V13.9543C7.33398 14.2067 7.31607 14.4587 7.28038 14.7085L7.00065 17.3333" stroke="white" stroke-width="1.5" stroke-linecap="round" stroke-linejoin="round"/>
<path d="M5.33398 6.66675V7.05727C5.33398 7.16968 5.33398 7.22589 5.33692 7.28004C5.36162 7.73503 5.54094 8.16795 5.8452 8.50715C5.88142 8.54752 5.92116 8.58726 6.00065 8.66675C6.08014 8.74623 6.11988 8.78597 6.16025 8.82219C6.49944 9.12646 6.93236 9.30578 7.38736 9.33047C7.44151 9.33341 7.49772 9.33341 7.61012 9.33341H9.05784C9.17025 9.33341 9.22646 9.33341 9.28061 9.33047C9.7356 9.30578 10.1685 9.12646 10.5077 8.82219C10.5481 8.78597 10.5878 8.74623 10.6673 8.66675" stroke="white" stroke-width="1.5" stroke-linecap="round" stroke-linejoin="round"/>
<path d="M14 12.6666H13.3333C12.5969 12.6666 12 12.0697 12 11.3333C12 12.0697 11.4031 12.6666 10.6667 12.6666H10" stroke="white" stroke-width="1.5" stroke-linecap="round" stroke-linejoin="round"/>
<path d="M14 16.0001H13.3333C12.5969 16.0001 12 15.4031 12 14.6667C12 15.4031 11.4031 16.0001 10.6667 16.0001H10" stroke="white" stroke-width="1.5" stroke-linecap="round" stroke-linejoin="round"/>
</svg>
