<svg width="28" height="28" viewBox="0 0 28 28" fill="none" xmlns="http://www.w3.org/2000/svg">
<path d="M0 3C0 1.34315 1.34315 0 3 0H25C26.6569 0 28 1.34315 28 3V25C28 26.6569 26.6569 28 25 28H3C1.34315 28 0 26.6569 0 25V3Z" fill="#EFEFEF" fill-opacity="0.96"/>
<path d="M16.5004 22.3332L16.2693 22.6799C16.3971 22.7652 16.5616 22.7732 16.697 22.7007C16.8325 22.6281 16.9171 22.4869 16.9171 22.3332H16.5004ZM14.0004 20.6666L14.2316 20.3199C14.0916 20.2266 13.9092 20.2266 13.7693 20.3199L14.0004 20.6666ZM11.5004 22.3332H11.0837C11.0837 22.4869 11.1683 22.6281 11.3038 22.7007C11.4393 22.7732 11.6037 22.7652 11.7315 22.6799L11.5004 22.3332ZM16.7316 21.9866L14.2316 20.3199L13.7693 21.0132L16.2693 22.6799L16.7316 21.9866ZM13.7693 20.3199L11.2693 21.9866L11.7315 22.6799L14.2316 21.0132L13.7693 20.3199ZM14.9524 6.59506L14.9876 6.63633L15.6222 6.09629L15.5871 6.05503L14.9524 6.59506ZM16.7415 7.36284L16.7955 7.35849L16.7286 6.52785L16.6746 6.5322L16.7415 7.36284ZM18.1418 8.70484L18.1375 8.75884L18.9681 8.82575L18.9725 8.77175L18.1418 8.70484ZM18.864 10.5128L18.9052 10.5479L19.4453 9.91324L19.4041 9.87814L18.864 10.5128ZM18.9052 12.4519L18.864 12.4871L19.4041 13.1217L19.4453 13.0866L18.9052 12.4519ZM18.1375 14.241L18.1418 14.295L18.9725 14.2281L18.9681 14.1741L18.1375 14.241ZM16.7955 15.6413L16.7415 15.637L16.6746 16.4677L16.7286 16.472L16.7955 15.6413ZM14.9876 16.3635L14.9524 16.4048L15.5871 16.9448L15.6222 16.9036L14.9876 16.3635ZM13.0484 16.4047L13.0133 16.3635L12.3786 16.9036L12.4137 16.9448L13.0484 16.4047ZM11.2593 15.637L11.2053 15.6413L11.2722 16.472L11.3262 16.4677L11.2593 15.637ZM9.85898 14.295L9.86333 14.241L9.03269 14.1741L9.02834 14.2281L9.85898 14.295ZM9.13681 12.4871L9.09555 12.4519L8.55552 13.0866L8.59677 13.1217L9.13681 12.4871ZM9.09555 10.5479L9.13681 10.5128L8.59677 9.87814L8.55552 9.91324L9.09555 10.5479ZM9.86333 8.75884L9.85898 8.70484L9.02834 8.77175L9.03269 8.82575L9.86333 8.75884ZM11.2053 7.35849L11.2593 7.36284L11.3262 6.5322L11.2722 6.52785L11.2053 7.35849ZM13.0133 6.63632L13.0484 6.59506L12.4137 6.05503L12.3786 6.09629L13.0133 6.63632ZM11.2593 7.36284C11.9268 7.41661 12.5794 7.14629 13.0133 6.63632L12.3786 6.09629C12.1183 6.40227 11.7267 6.56446 11.3262 6.5322L11.2593 7.36284ZM9.85898 8.70484C9.79713 7.93711 10.4376 7.29664 11.2053 7.35849L11.2722 6.52785C9.9927 6.42477 8.92526 7.49221 9.02834 8.77175L9.85898 8.70484ZM9.13681 10.5128C9.64678 10.0789 9.9171 9.42627 9.86333 8.75884L9.03269 8.82575C9.06495 9.22622 8.90276 9.61778 8.59677 9.87814L9.13681 10.5128ZM9.09555 12.4519C8.50895 11.9528 8.50895 11.047 9.09555 10.5479L8.55552 9.91324C7.57785 10.7451 7.57785 12.2547 8.55552 13.0866L9.09555 12.4519ZM9.86333 14.241C9.9171 13.5736 9.64678 12.921 9.13681 12.4871L8.59677 13.1217C8.90276 13.3821 9.06495 13.7737 9.03269 14.1741L9.86333 14.241ZM11.2053 15.6413C10.4376 15.7032 9.79713 15.0627 9.85898 14.295L9.02834 14.2281C8.92526 15.5077 9.9927 16.5751 11.2722 16.472L11.2053 15.6413ZM14.9524 16.4048C14.4533 16.9915 13.5476 16.9914 13.0484 16.4047L12.4137 16.9448C13.2456 17.9225 14.7552 17.9225 15.5871 16.9448L14.9524 16.4048ZM18.1418 14.295C18.2037 15.0627 17.5632 15.7032 16.7955 15.6413L16.7286 16.472C18.0081 16.5751 19.0756 15.5077 18.9725 14.2281L18.1418 14.295ZM18.864 12.4871C18.3541 12.921 18.0837 13.5736 18.1375 14.241L18.9681 14.1741C18.9359 13.7737 19.0981 13.3821 19.4041 13.1217L18.864 12.4871ZM18.9052 10.5479C19.4919 11.047 19.4919 11.9528 18.9052 12.4519L19.4453 13.0866C20.423 12.2547 20.423 10.7451 19.4453 9.91324L18.9052 10.5479ZM18.1375 8.75884C18.0837 9.42628 18.3541 10.0789 18.864 10.5128L19.4041 9.87814C19.0981 9.61778 18.9359 9.22622 18.9681 8.82575L18.1375 8.75884ZM16.7955 7.35849C17.5632 7.29664 18.2037 7.93711 18.1418 8.70484L18.9725 8.77175C19.0756 7.49221 18.0081 6.42477 16.7286 6.52785L16.7955 7.35849ZM14.9876 6.63633C15.4215 7.1463 16.0741 7.41661 16.7415 7.36284L16.6746 6.5322C16.2741 6.56446 15.8826 6.40227 15.6222 6.09629L14.9876 6.63633ZM15.5871 6.05503C14.7552 5.07736 13.2456 5.07736 12.4137 6.05503L13.0484 6.59506C13.5476 6.00846 14.4533 6.00846 14.9524 6.59506L15.5871 6.05503ZM13.0133 16.3635C12.6358 15.9199 12.093 15.6577 11.5188 15.6323L11.482 16.4648C11.8265 16.4801 12.1522 16.6374 12.3786 16.9036L13.0133 16.3635ZM11.5188 15.6323C11.4328 15.6285 11.3462 15.63 11.2593 15.637L11.3262 16.4677C11.3784 16.4634 11.4304 16.4626 11.482 16.4648L11.5188 15.6323ZM11.9171 22.3332V16.0486H11.0837V22.3332H11.9171ZM16.7415 15.637C16.6546 15.63 16.568 15.6285 16.482 15.6323L16.5188 16.4648C16.5704 16.4626 16.6224 16.4634 16.6746 16.4677L16.7415 15.637ZM16.482 15.6323C15.9078 15.6577 15.365 15.9199 14.9876 16.3635L15.6222 16.9036C15.8486 16.6374 16.1743 16.4801 16.5188 16.4648L16.482 15.6323ZM16.0837 16.0486V22.3332H16.9171V16.0486H16.0837Z" fill="#212121"/>
<path d="M16.2693 22.6799L16.5004 22.3332H16.9171M16.2693 22.6799C16.3971 22.7652 16.5616 22.7732 16.697 22.7007C16.8325 22.6281 16.9171 22.4869 16.9171 22.3332M16.2693 22.6799L13.7693 21.0132L14.2316 20.3199M16.2693 22.6799L16.7316 21.9866L14.2316 20.3199M16.9171 22.3332H16.0837V16.0486H16.9171V22.3332ZM14.2316 20.3199L14.0004 20.6666L13.7693 20.3199M14.2316 20.3199C14.0916 20.2266 13.9092 20.2266 13.7693 20.3199M13.7693 20.3199L11.2693 21.9866L11.7315 22.6799M13.7693 20.3199L14.2316 21.0132L11.7315 22.6799M11.0837 22.3332H11.5004L11.7315 22.6799M11.0837 22.3332C11.0837 22.4869 11.1683 22.6281 11.3038 22.7007C11.4393 22.7732 11.6037 22.7652 11.7315 22.6799M11.0837 22.3332V16.0486H11.9171V22.3332H11.0837ZM11.2928 6.94752L11.2593 7.36284M11.2593 7.36284L11.2053 7.35849M11.2593 7.36284L11.3262 6.5322M11.2593 7.36284C11.9268 7.41661 12.5794 7.14629 13.0133 6.63632M12.696 6.3663L12.3786 6.09629M12.3786 6.09629L12.4137 6.05503M12.3786 6.09629L13.0133 6.63632M12.3786 6.09629C12.1183 6.40227 11.7267 6.56446 11.3262 6.5322M9.44366 8.73829L9.02834 8.77175M9.02834 8.77175L9.85898 8.70484M9.02834 8.77175L9.03269 8.82575M9.02834 8.77175C8.92526 7.49221 9.9927 6.42477 11.2722 6.52785M11.2388 6.94317L11.2722 6.52785M11.2722 6.52785L11.3262 6.5322M11.2722 6.52785L11.2053 7.35849M8.86679 10.1955L9.13681 10.5128M9.13681 10.5128L9.09555 10.5479M9.13681 10.5128L8.59677 9.87814M9.13681 10.5128C9.64678 10.0789 9.9171 9.42627 9.86333 8.75884M9.44801 8.79229L9.86333 8.75884M9.86333 8.75884L9.85898 8.70484M9.86333 8.75884L9.03269 8.82575M8.82553 12.7692L8.55552 13.0866M8.55552 13.0866L9.09555 12.4519M8.55552 13.0866L8.59677 13.1217M8.55552 13.0866C7.57785 12.2547 7.57785 10.7451 8.55552 9.91324M8.82553 10.2306L8.55552 9.91324M8.55552 9.91324L8.59677 9.87814M8.55552 9.91324L9.09555 10.5479M9.44801 14.2076L9.03269 14.1741M9.03269 14.1741L9.86333 14.241M9.03269 14.1741L9.02834 14.2281M9.03269 14.1741C9.06495 13.7737 8.90276 13.3821 8.59677 13.1217M8.86679 12.8044L9.13681 12.4871M9.13681 12.4871L9.09555 12.4519M9.13681 12.4871L8.59677 13.1217M9.13681 12.4871C9.64678 12.921 9.9171 13.5736 9.86333 14.241M11.2388 16.0567L11.2722 16.472M11.2722 16.472L11.2053 15.6413M11.2722 16.472L11.3262 16.4677M11.2722 16.472C9.9927 16.5751 8.92526 15.5077 9.02834 14.2281M9.44366 14.2616L9.85898 14.295M9.85898 14.295L9.86333 14.241M9.85898 14.295L9.02834 14.2281M9.85898 14.295C9.79713 15.0627 10.4376 15.7032 11.2053 15.6413M12.696 16.6336L13.0133 16.3635M13.0133 16.3635L13.0484 16.4047M13.0133 16.3635L12.3786 16.9036M13.0133 16.3635C12.6358 15.9199 12.093 15.6577 11.5188 15.6323M11.2928 16.0523L11.2593 15.637M11.2593 15.637L11.2053 15.6413M11.2593 15.637L11.3262 16.4677M11.2593 15.637C11.3462 15.63 11.4328 15.6285 11.5188 15.6323M15.2697 16.6748L15.5871 16.9448M15.5871 16.9448L14.9524 16.4048M15.5871 16.9448L15.6222 16.9036M15.5871 16.9448C14.7552 17.9225 13.2456 17.9225 12.4137 16.9448M12.7311 16.6748L12.4137 16.9448M12.4137 16.9448L12.3786 16.9036M12.4137 16.9448L13.0484 16.4047M16.7081 16.0523L16.7415 15.637M16.7415 15.637L16.7955 15.6413M16.7415 15.637L16.6746 16.4677M16.7415 15.637C16.6546 15.63 16.568 15.6285 16.482 15.6323M15.3049 16.6336L14.9876 16.3635M14.9876 16.3635L14.9524 16.4048M14.9876 16.3635L15.6222 16.9036M14.9876 16.3635C15.365 15.9199 15.9078 15.6577 16.482 15.6323M18.5571 14.2616L18.9725 14.2281M18.9725 14.2281L18.1418 14.295M18.9725 14.2281L18.9681 14.1741M18.9725 14.2281C19.0756 15.5077 18.0081 16.5751 16.7286 16.472M16.7621 16.0567L16.7286 16.472M16.7286 16.472L16.6746 16.4677M16.7286 16.472L16.7955 15.6413M19.1341 12.8044L19.4041 13.1217M19.4041 13.1217L18.864 12.4871M19.4041 13.1217L19.4453 13.0866M19.4041 13.1217C19.0981 13.3821 18.9359 13.7737 18.9681 14.1741M18.5528 14.2076L18.1375 14.241M18.1375 14.241L18.1418 14.295M18.1375 14.241L18.9681 14.1741M18.1375 14.241C18.0837 13.5736 18.3541 12.921 18.864 12.4871M19.1753 10.2306L19.4453 9.91324M19.4453 9.91324L18.9052 10.5479M19.4453 9.91324L19.4041 9.87814M19.4453 9.91324C20.423 10.7451 20.423 12.2547 19.4453 13.0866M19.1753 12.7692L18.9052 12.4519M18.9052 12.4519L18.864 12.4871M18.9052 12.4519L19.4453 13.0866M18.9052 12.4519C19.4919 11.9528 19.4919 11.047 18.9052 10.5479M18.5528 8.79229L18.1375 8.75884M18.1375 8.75884L18.1418 8.70484M18.1375 8.75884L18.9681 8.82575M18.1375 8.75884C18.0837 9.42628 18.3541 10.0789 18.864 10.5128M19.1341 10.1955L18.864 10.5128M18.864 10.5128L18.9052 10.5479M18.864 10.5128L19.4041 9.87814M16.7621 6.94317L16.7286 6.52785M16.7286 6.52785L16.7955 7.35849M16.7286 6.52785L16.6746 6.5322M16.7286 6.52785C18.0081 6.42477 19.0756 7.49221 18.9725 8.77175M18.5571 8.73829L18.9725 8.77175M18.9725 8.77175L18.9681 8.82575M18.9725 8.77175L18.1418 8.70484M15.3049 6.3663L15.6222 6.09629M15.6222 6.09629L14.9876 6.63633M15.6222 6.09629L15.5871 6.05503M15.6222 6.09629C15.8826 6.40227 16.2741 6.56446 16.6746 6.5322M16.7081 6.94752L16.7415 7.36284M16.7415 7.36284L16.7955 7.35849M16.7415 7.36284L16.6746 6.5322M16.7415 7.36284C16.0741 7.41661 15.4215 7.1463 14.9876 6.63633M15.2697 6.32504L14.9524 6.59506M14.9524 6.59506L14.9876 6.63633M14.9524 6.59506L15.5871 6.05503M14.9524 6.59506C14.4533 6.00846 13.5476 6.00846 13.0484 6.59506M12.7311 6.32504L13.0484 6.59506M13.0484 6.59506L13.0133 6.63632M13.0484 6.59506L12.4137 6.05503M11.5004 16.0486L11.5188 15.6323M11.5188 15.6323L11.482 16.4648M15.5871 6.05503C14.7552 5.07736 13.2456 5.07736 12.4137 6.05503M16.7955 7.35849C17.5632 7.29664 18.2037 7.93711 18.1418 8.70484M18.9681 8.82575C18.9359 9.22622 19.0981 9.61778 19.4041 9.87814M18.1418 14.295C18.2037 15.0627 17.5632 15.7032 16.7955 15.6413M16.6746 16.4677C16.6224 16.4634 16.5704 16.4626 16.5188 16.4648M14.9524 16.4048C14.4533 16.9915 13.5476 16.9914 13.0484 16.4047M15.6222 16.9036C15.8486 16.6374 16.1743 16.4801 16.5188 16.4648M12.3786 16.9036C12.1522 16.6374 11.8265 16.4801 11.482 16.4648M11.3262 16.4677C11.3784 16.4634 11.4304 16.4626 11.482 16.4648M9.09555 12.4519C8.50895 11.9528 8.50895 11.047 9.09555 10.5479M8.59677 9.87814C8.90276 9.61778 9.06495 9.22622 9.03269 8.82575M9.85898 8.70484C9.79713 7.93711 10.4376 7.29664 11.2053 7.35849M16.482 15.6323L16.5188 16.4648" stroke="#212121" stroke-width="0.416667"/>
<path d="M15.6673 10.6667L13.1673 13.1667L12.334 12.3334" stroke="#212121" stroke-width="0.833333" stroke-linecap="round" stroke-linejoin="round"/>
</svg>
