<svg width="60" height="60" viewBox="0 0 60 60" fill="none" xmlns="http://www.w3.org/2000/svg">
<rect width="60" height="60" rx="30" fill="#CBF6DB"/>
<path d="M14.4686 36.5L22.6629 24.5H23.9829L15.7886 36.5H14.4686ZM15.4286 30.9457C14.88 30.9457 14.3943 30.8086 13.9714 30.5343C13.5486 30.26 13.2171 29.8771 12.9771 29.3857C12.7486 28.8943 12.6343 28.3229 12.6343 27.6714C12.6343 27.02 12.7486 26.4486 12.9771 25.9571C13.2171 25.4657 13.5486 25.0829 13.9714 24.8086C14.3943 24.5343 14.88 24.3971 15.4286 24.3971C15.9886 24.3971 16.4743 24.5343 16.8857 24.8086C17.3086 25.0829 17.6343 25.4657 17.8629 25.9571C18.0914 26.4486 18.2057 27.02 18.2057 27.6714C18.2057 28.3229 18.0914 28.8943 17.8629 29.3857C17.6343 29.8771 17.3086 30.26 16.8857 30.5343C16.4743 30.8086 15.9886 30.9457 15.4286 30.9457ZM15.4286 29.9686C15.9543 29.9686 16.3657 29.7686 16.6629 29.3686C16.96 28.9571 17.1086 28.3914 17.1086 27.6714C17.1086 26.9514 16.96 26.3914 16.6629 25.9914C16.3657 25.58 15.9543 25.3743 15.4286 25.3743C14.9143 25.3743 14.5029 25.58 14.1943 25.9914C13.8971 26.3914 13.7486 26.9514 13.7486 27.6714C13.7486 28.38 13.8971 28.94 14.1943 29.3514C14.5029 29.7629 14.9143 29.9686 15.4286 29.9686ZM23.0229 36.6029C22.4743 36.6029 21.9886 36.4657 21.5657 36.1914C21.1429 35.9171 20.8171 35.5343 20.5886 35.0429C20.36 34.5514 20.2457 33.98 20.2457 33.3286C20.2457 32.6771 20.36 32.1057 20.5886 31.6143C20.8171 31.1229 21.1429 30.74 21.5657 30.4657C21.9886 30.1914 22.4743 30.0543 23.0229 30.0543C23.5829 30.0543 24.0686 30.1914 24.48 30.4657C24.9029 30.74 25.2286 31.1229 25.4571 31.6143C25.6971 32.1057 25.8171 32.6771 25.8171 33.3286C25.8171 33.98 25.6971 34.5514 25.4571 35.0429C25.2286 35.5343 24.9029 35.9171 24.48 36.1914C24.0686 36.4657 23.5829 36.6029 23.0229 36.6029ZM23.0229 35.6257C23.5371 35.6257 23.9429 35.4257 24.24 35.0257C24.5486 34.6143 24.7029 34.0486 24.7029 33.3286C24.7029 32.62 24.5486 32.06 24.24 31.6486C23.9429 31.2371 23.5371 31.0314 23.0229 31.0314C22.5086 31.0314 22.0971 31.2371 21.7886 31.6486C21.4914 32.0486 21.3429 32.6086 21.3429 33.3286C21.3429 34.0486 21.4914 34.6143 21.7886 35.0257C22.0971 35.4257 22.5086 35.6257 23.0229 35.6257ZM27.0607 36.5V35.3343L31.9464 30.62C32.3807 30.2086 32.7007 29.8486 32.9064 29.54C33.1235 29.22 33.2664 28.9286 33.335 28.6657C33.415 28.3914 33.455 28.1286 33.455 27.8771C33.455 27.26 33.2378 26.7743 32.8035 26.42C32.3692 26.0657 31.735 25.8886 30.9007 25.8886C30.2607 25.8886 29.6835 25.9971 29.1692 26.2143C28.655 26.42 28.2092 26.7457 27.8321 27.1914L26.6664 26.18C27.1235 25.5971 27.735 25.1514 28.5007 24.8429C29.2778 24.5229 30.1292 24.3629 31.055 24.3629C31.8892 24.3629 32.615 24.5 33.2321 24.7743C33.8492 25.0371 34.3235 25.42 34.655 25.9229C34.9978 26.4257 35.1692 27.02 35.1692 27.7057C35.1692 28.0943 35.1178 28.4771 35.015 28.8543C34.9121 29.2314 34.7178 29.6314 34.4321 30.0543C34.1464 30.4771 33.735 30.9514 33.1978 31.4771L28.8435 35.6771L28.4321 35.0086H35.6835V36.5H27.0607ZM36.3982 33.5514V32.3514L42.5353 24.5H44.3867L38.301 32.3514L37.4267 32.0771H47.0096V33.5514H36.3982ZM43.0667 36.5V33.5514L43.1182 32.0771V29.4714H44.7296V36.5H43.0667Z" fill="#008B35"/>
</svg>
