<svg width="24" height="24" viewBox="0 0 24 24" fill="none" xmlns="http://www.w3.org/2000/svg">
<rect width="24" height="24" rx="2.72727" fill="#06C44F"/>
<path fill-rule="evenodd" clip-rule="evenodd" d="M12.9664 6.49653C12.9275 6.49199 12.8881 6.49199 12.8491 6.49653C12.8008 6.50218 12.7289 6.52447 12.5854 6.63828C12.4346 6.75796 12.2536 6.93795 11.9769 7.21462C11.7003 7.4913 11.5202 7.67226 11.4006 7.8231C11.2867 7.96655 11.2645 8.03855 11.2588 8.08684C11.2543 8.12579 11.2543 8.16515 11.2588 8.2041C11.2645 8.2524 11.2867 8.3244 11.4006 8.46784C11.5202 8.61868 11.7003 8.79965 11.9769 9.07632L14.9234 12.0228C15.2001 12.2994 15.381 12.4795 15.5319 12.5991C15.6753 12.713 15.7473 12.7352 15.7956 12.7409C15.8345 12.7454 15.8739 12.7454 15.9129 12.7409C15.9612 12.7352 16.0332 12.713 16.1766 12.5991C16.3274 12.4795 16.5084 12.2994 16.7851 12.0228C17.0617 11.7461 17.2418 11.5651 17.3614 11.4143C17.4753 11.2709 17.4975 11.1989 17.5032 11.1506C17.5077 11.1116 17.5077 11.0722 17.5032 11.0333C17.4975 10.985 17.4753 10.913 17.3614 10.7696C17.2418 10.6187 17.0617 10.4378 16.7851 10.1611L13.8386 7.21462C13.5619 6.93795 13.381 6.75796 13.2301 6.63828C13.0867 6.52447 13.0147 6.50218 12.9664 6.49653ZM12.7455 5.60954C12.8533 5.59695 12.9622 5.59695 13.07 5.60954C13.3504 5.64229 13.5773 5.77377 13.7852 5.93871C13.9812 6.09417 14.1984 6.3114 14.4523 6.56542L17.4343 9.54739C17.6883 9.80137 17.9055 10.0186 18.061 10.2145C18.2259 10.4224 18.3574 10.6493 18.3901 10.9297C18.4028 11.0375 18.4028 11.1464 18.3901 11.2542C18.3574 11.5345 18.2259 11.7615 18.061 11.9694C17.9055 12.1653 17.6883 12.3825 17.4343 12.6365L17.3988 12.672C17.1448 12.926 16.9276 13.1432 16.7317 13.2987C16.5238 13.4636 16.2968 13.5951 16.0165 13.6278C15.9087 13.6405 15.7998 13.6405 15.692 13.6278C15.4116 13.5951 15.1847 13.4636 14.9768 13.2987C14.7808 13.1432 14.5637 12.926 14.3097 12.672L13.9457 12.308L12.3075 13.9462L12.6715 14.3102C12.9255 14.5641 13.1427 14.7813 13.2982 14.9773C13.4632 15.1852 13.5946 15.4121 13.6274 15.6925C13.64 15.8003 13.64 15.9092 13.6274 16.017C13.5946 16.2973 13.4632 16.5243 13.2982 16.7322C13.1427 16.9281 12.9255 17.1453 12.6715 17.3993L12.636 17.4347C12.3821 17.6888 12.1648 17.906 11.9689 18.0615C11.761 18.2264 11.534 18.3579 11.2537 18.3906C11.1459 18.4033 11.037 18.4033 10.9292 18.3906C10.6488 18.3579 10.4219 18.2264 10.214 18.0615C10.0181 17.906 9.80086 17.6888 9.54688 17.4348L6.56493 14.4528C6.31092 14.1988 6.09369 13.9817 5.93822 13.7857C5.77328 13.5778 5.6418 13.3509 5.60905 13.0705C5.59646 12.9627 5.59646 12.8538 5.60905 12.746C5.6418 12.4657 5.77328 12.2387 5.93822 12.0308C6.09368 11.8349 6.31092 11.6177 6.56492 11.3637L6.60042 11.3282C6.8544 11.0742 7.07162 10.857 7.26756 10.7015C7.47544 10.5366 7.70236 10.4051 7.98276 10.3723C8.09054 10.3597 8.19943 10.3597 8.30721 10.3723C8.58761 10.4051 8.81453 10.5366 9.02241 10.7015C9.21835 10.857 9.43556 11.0742 9.68954 11.3282L9.82809 11.4667L11.4662 9.82858L11.3277 9.69004C11.0737 9.43605 10.8565 9.21884 10.701 9.0229C10.5361 8.81502 10.4046 8.58809 10.3718 8.3077C10.3593 8.19992 10.3593 8.09103 10.3718 7.98324C10.4046 7.70285 10.5361 7.47592 10.701 7.26805C10.8565 7.0721 11.0737 6.8549 11.3277 6.60091L11.3632 6.56541C11.6172 6.3114 11.8344 6.09417 12.0303 5.93871C12.2382 5.77377 12.4652 5.64229 12.7455 5.60954ZM12.0977 10.46L10.4596 12.0982L11.676 13.3147L13.3143 11.6765L12.0977 10.46ZM15.2672 6.02754C15.4416 5.85316 15.7242 5.85316 15.8986 6.02754L17.7466 7.8755C17.9209 8.04988 17.9209 8.33259 17.7466 8.50697C17.5722 8.68134 17.2895 8.68134 17.1151 8.50697L15.2672 6.659C15.0928 6.48463 15.0928 6.20191 15.2672 6.02754ZM8.20361 11.2593C8.16466 11.2548 8.12531 11.2548 8.08635 11.2593C8.03806 11.265 7.96606 11.2872 7.82261 11.4011C7.67178 11.5207 7.49081 11.7008 7.21413 11.9774C6.93746 12.2541 6.75747 12.4351 6.63779 12.5859C6.52398 12.7293 6.50169 12.8013 6.49605 12.8496C6.4915 12.8886 6.4915 12.9279 6.49605 12.9669C6.50169 13.0152 6.52398 13.0872 6.63779 13.2306C6.75747 13.3815 6.93746 13.5624 7.21414 13.8391L10.1606 16.7856C10.4373 17.0622 10.6182 17.2423 10.7691 17.3619C10.9125 17.4758 10.9845 17.498 11.0328 17.5037C11.0718 17.5082 11.1111 17.5082 11.1501 17.5037C11.1984 17.498 11.2704 17.4758 11.4138 17.3619C11.5646 17.2423 11.7456 17.0622 12.0223 16.7856C12.299 16.5089 12.479 16.3279 12.5986 16.1771C12.7125 16.0336 12.7347 15.9617 12.7404 15.9134C12.7449 15.8744 12.7449 15.835 12.7404 15.7961C12.7347 15.7478 12.7125 15.6758 12.5986 15.5324C12.479 15.3815 12.299 15.2006 12.0223 14.9239L9.07583 11.9774C8.79916 11.7008 8.61819 11.5207 8.46735 11.4011C8.32391 11.2872 8.25191 11.265 8.20361 11.2593ZM6.02661 15.2673C6.20098 15.0929 6.4837 15.0929 6.65808 15.2673L8.50604 17.1153C8.68042 17.2897 8.68042 17.5723 8.50604 17.7467C8.33167 17.9211 8.04895 17.9211 7.87458 17.7467L6.02661 15.8987C5.85224 15.7244 5.85224 15.4417 6.02661 15.2673Z" fill="#FEFEFE"/>
</svg>
