<svg width="24" height="24" viewBox="0 0 24 24" fill="none" xmlns="http://www.w3.org/2000/svg">
<rect width="24" height="24" rx="2.72727" fill="#06C44F"/>
<path d="M13.3926 10.6667C13.3926 10.9429 13.6164 11.1667 13.8926 11.1667H14.3521L13.0104 12.5085C12.9453 12.5735 12.8398 12.5735 12.7747 12.5085L11.7175 11.4513C11.2619 10.9957 10.5232 10.9957 10.0676 11.4513L8.53902 12.9799C8.34376 13.1751 8.34376 13.4917 8.53902 13.6869C8.73428 13.8822 9.05087 13.8822 9.24613 13.6869L10.7747 12.1583C10.8398 12.0933 10.9453 12.0933 11.0104 12.1583L12.0676 13.2155C12.5232 13.6711 13.2619 13.6711 13.7175 13.2155L15.0592 11.8739V12.3334C15.0592 12.6095 15.2831 12.8334 15.5592 12.8334C15.8354 12.8334 16.0592 12.6095 16.0592 12.3334V10.6667C16.0592 10.3906 15.8354 10.1667 15.5592 10.1667H13.8926C13.6164 10.1667 13.3926 10.3906 13.3926 10.6667Z" fill="white"/>
<path fill-rule="evenodd" clip-rule="evenodd" d="M12.1889 4.83325C10.65 4.83325 9.44401 4.83324 8.50302 4.95975C7.53986 5.08925 6.77985 5.35947 6.18331 5.95601C5.58677 6.55255 5.31654 7.31257 5.18705 8.27573C5.06053 9.21671 5.06054 10.4227 5.06055 11.9617V12.0382C5.06054 13.5771 5.06053 14.7831 5.18705 15.7241C5.31654 16.6873 5.58677 17.4473 6.18331 18.0439C6.77985 18.6404 7.53986 18.9106 8.50302 19.0401C9.44401 19.1666 10.65 19.1666 12.1889 19.1666H12.2655C13.8044 19.1666 15.0104 19.1666 15.9514 19.0401C16.9145 18.9106 17.6746 18.6404 18.2711 18.0439C18.8677 17.4473 19.1379 16.6873 19.2674 15.7241C19.3939 14.7831 19.3939 13.5771 19.3939 12.0382V11.9617C19.3939 10.4227 19.3939 9.21671 19.2674 8.27573C19.1379 7.31257 18.8677 6.55255 18.2711 5.95601C17.6746 5.35947 16.9145 5.08925 15.9514 4.95975C15.0104 4.83324 13.8044 4.83325 12.2655 4.83325H12.1889ZM6.89041 6.66312C7.27018 6.28335 7.78399 6.06542 8.63627 5.95083C9.50292 5.83431 10.6417 5.83325 12.2272 5.83325C13.8127 5.83325 14.9515 5.83431 15.8181 5.95083C16.6704 6.06542 17.1842 6.28335 17.564 6.66312C17.9438 7.04289 18.1617 7.5567 18.2763 8.40897C18.3928 9.27563 18.3939 10.4144 18.3939 11.9999C18.3939 13.5854 18.3928 14.7242 18.2763 15.5909C18.1617 16.4431 17.9438 16.9569 17.564 17.3367C17.1842 17.7165 16.6704 17.9345 15.8181 18.049C14.9515 18.1655 13.8127 18.1666 12.2272 18.1666C10.6417 18.1666 9.50292 18.1655 8.63627 18.049C7.78399 17.9345 7.27018 17.7165 6.89041 17.3367C6.51064 16.9569 6.29271 16.4431 6.17813 15.5909C6.06161 14.7242 6.06055 13.5854 6.06055 11.9999C6.06055 10.4144 6.06161 9.27563 6.17813 8.40897C6.29271 7.5567 6.51064 7.04289 6.89041 6.66312Z" fill="white"/>
</svg>
