<svg width="24" height="24" viewBox="0 0 24 24" fill="none" xmlns="http://www.w3.org/2000/svg">
<rect width="24" height="24" rx="2.72727" fill="#06C44F"/>
<path d="M14.5592 10.6667C14.007 10.6667 13.5592 10.219 13.5592 9.66675M9.89258 10.6667C10.4449 10.6667 10.8926 10.219 10.8926 9.66675" stroke="white" stroke-width="1.5" stroke-linecap="round" stroke-linejoin="round"/>
<path d="M13.5605 5.33325V5.76191C13.5605 6.15311 13.5605 6.34871 13.6041 6.51495C13.7092 6.91586 13.9947 7.24511 14.3768 7.40584C14.5352 7.47249 14.7288 7.50015 15.1161 7.55547C15.8907 7.66613 16.2779 7.72145 16.5947 7.85475C17.3587 8.17622 17.9299 8.8347 18.1401 9.63652C18.2272 9.96899 18.2272 10.3602 18.2272 11.1426V18.6666" stroke="white" stroke-width="1.5" stroke-linecap="round" stroke-linejoin="round"/>
<path d="M10.8932 5.33325V5.76191C10.8932 6.15311 10.8932 6.34871 10.8496 6.51495C10.7446 6.91586 10.459 7.24511 10.077 7.40584C9.91859 7.47249 9.72495 7.50015 9.33768 7.55547C8.56312 7.66613 8.17585 7.72145 7.85904 7.85475C7.095 8.17622 6.5239 8.8347 6.31372 9.63652C6.22656 9.96899 6.22656 10.3602 6.22656 11.1426V18.6666" stroke="white" stroke-width="1.5" stroke-linecap="round" stroke-linejoin="round"/>
<path d="M12.2266 12.6667V18.6667" stroke="white" stroke-width="1.5" stroke-linecap="round" stroke-linejoin="round"/>
<path d="M16.2259 11.6667C16.2259 11.6667 15.8625 13.5758 15.8946 15.4849C15.9159 16.7515 16.2259 18.6667 16.2259 18.6667" stroke="white" stroke-width="1.5" stroke-linecap="round" stroke-linejoin="round"/>
<path d="M8.22656 11.6667C8.22656 11.6667 8.58998 13.5758 8.55789 15.4849C8.5366 16.7515 8.22656 18.6667 8.22656 18.6667" stroke="white" stroke-width="1.5" stroke-linecap="round" stroke-linejoin="round"/>
</svg>
