<svg width="72" height="48" viewBox="0 0 72 48" fill="none" xmlns="http://www.w3.org/2000/svg">
<path d="M68.3949 42.2696C69.5559 42.5056 70.6952 41.7561 70.8608 40.583C71.4988 36.0648 71.2632 31.4591 70.1595 27.0178C68.883 21.8815 66.4775 17.0944 63.1181 13.0048C59.7587 8.91516 55.5298 5.62589 50.7392 3.37632C45.9485 1.12675 40.7166 -0.026535 35.4242 0.00038147C30.1317 0.0273056 24.9118 1.23374 20.1443 3.53193C15.3768 5.83011 11.1816 9.16222 7.86395 13.2858C4.5463 17.4094 2.18966 22.2207 0.965511 27.3698C-0.0929885 31.822 -0.281736 36.4299 0.402133 40.9414C0.579695 42.1127 1.72653 42.8505 2.88509 42.6028C4.04365 42.355 4.77427 41.2154 4.60638 40.0426C4.05009 36.1565 4.2286 32.1938 5.13956 28.3621C6.2162 23.8336 8.28887 19.602 11.2067 15.9753C14.1246 12.3486 17.8143 9.41797 22.0073 7.39672C26.2004 5.37546 30.7913 4.31439 35.446 4.29072C40.1007 4.26704 44.7022 5.28136 48.9155 7.25986C53.1289 9.23836 56.8482 12.1313 59.8028 15.7281C62.7575 19.3249 64.8731 23.5352 65.9957 28.0526C66.9456 31.8748 67.1644 35.8355 66.6477 39.7271C66.4917 40.9015 67.2339 42.0336 68.3949 42.2696Z" fill="#A5A5A5" fill-opacity="0.32"/>
<path d="M62.8699 16.4438C63.9005 15.7195 64.1544 14.2916 63.3656 13.3095C60.4425 9.66985 56.8271 6.6345 52.7206 4.38338C47.9463 1.76619 42.6354 0.278763 37.1962 0.0354843C31.757 -0.207794 26.3345 0.799553 21.3456 2.98007C17.0546 4.85558 13.1827 7.55605 9.94622 10.9202C9.0729 11.828 9.19832 13.2729 10.1602 14.0863C11.122 14.8997 12.5553 14.7727 13.4372 13.8732C16.2172 11.0373 19.5208 8.75602 23.1726 7.15993C27.5223 5.25878 32.2501 4.38049 36.9924 4.59261C41.7347 4.80471 46.3652 6.10158 50.5278 8.38346C54.0225 10.2992 57.1092 12.8663 59.625 15.939C60.423 16.9137 61.8393 17.1681 62.8699 16.4438Z" fill="#06C44F"/>
<path d="M21.9302 30.367V28.796H26.0842V30.367H21.9302ZM30.4381 33.9318C29.6929 33.9318 28.9628 33.8261 28.2478 33.6146C27.5429 33.3931 26.9487 33.091 26.4654 32.7083L27.3113 31.1827C27.6939 31.4948 28.1572 31.7466 28.7009 31.9379C29.2447 32.1293 29.8137 32.2249 30.4078 32.2249C31.1128 32.2249 31.6616 32.0839 32.0543 31.802C32.4471 31.5099 32.6434 31.1172 32.6434 30.6238C32.6434 30.1404 32.4622 29.7577 32.0996 29.4758C31.7371 29.1938 31.153 29.0528 30.3474 29.0528H29.3807V27.7084L32.4017 24.1134L32.6585 24.8536H26.9789V23.2071H34.1842V24.5212L31.1631 28.1163L30.1359 27.5121H30.7251C32.0241 27.5121 32.9959 27.8041 33.6404 28.3882C34.2949 28.9622 34.6222 29.7023 34.6222 30.6087C34.6222 31.2028 34.4712 31.7516 34.1691 32.2551C33.8669 32.7586 33.4037 33.1665 32.7794 33.4787C32.1651 33.7808 31.3846 33.9318 30.4381 33.9318ZM36.9187 33.8865C36.5763 33.8865 36.2843 33.7707 36.0426 33.5391C35.8009 33.2974 35.6801 32.9953 35.6801 32.6328C35.6801 32.2501 35.8009 31.948 36.0426 31.7264C36.2843 31.4948 36.5763 31.379 36.9187 31.379C37.2611 31.379 37.5531 31.4948 37.7948 31.7264C38.0365 31.948 38.1573 32.2501 38.1573 32.6328C38.1573 32.9953 38.0365 33.2974 37.7948 33.5391C37.5531 33.7707 37.2611 33.8865 36.9187 33.8865ZM39.0521 31.379V30.0196L44.2634 23.2071H46.363L41.2272 30.0196L40.2454 29.7174H48.6288V31.379H39.0521ZM44.8525 33.7808V31.379L44.9129 29.7174V27.5876H46.7558V33.7808H44.8525Z" fill="#06C44F"/>
</svg>
