<svg width="54" height="54" viewBox="0 0 54 54" fill="none" xmlns="http://www.w3.org/2000/svg">
<path d="M54 27C54 41.9117 41.9117 54 27 54C12.0883 54 0 41.9117 0 27C0 12.0883 12.0883 0 27 0C41.9117 0 54 12.0883 54 27ZM3.25347 27C3.25347 40.1148 13.8852 50.7465 27 50.7465C40.1148 50.7465 50.7465 40.1148 50.7465 27C50.7465 13.8852 40.1148 3.25347 27 3.25347C13.8852 3.25347 3.25347 13.8852 3.25347 27Z" fill="#A5A5A5" fill-opacity="0.32"/>
<path d="M52.2704 27C53.2256 27 54.0058 27.7752 53.9446 28.7285C53.6545 33.2518 52.2293 37.6394 49.7884 41.4806C47.0377 45.8095 43.1109 49.2654 38.4675 51.4437C33.8242 53.6221 28.6565 54.4329 23.5691 53.7811C18.4818 53.1294 13.6853 51.0422 9.74108 47.7637C5.79682 44.4852 2.86795 40.151 1.29726 35.2686C-0.273435 30.3861 -0.420975 25.1572 0.871907 20.1939C2.16479 15.2306 4.8446 10.7383 8.59772 7.24257C11.928 4.14068 15.9812 1.93743 20.3752 0.825336C21.3013 0.590966 22.206 1.21625 22.3806 2.15538C22.5553 3.09451 21.9332 3.99108 21.0095 4.23415C17.261 5.22049 13.8047 7.11992 10.9554 9.77385C7.68311 12.8217 5.34662 16.7385 4.21938 21.0659C3.09214 25.3933 3.22078 29.9523 4.59024 34.2092C5.9597 38.4662 8.51332 42.245 11.9523 45.1035C15.3912 47.9619 19.5731 49.7818 24.0087 50.35C28.4443 50.9182 32.9499 50.2113 36.9983 48.312C41.0468 46.4128 44.4705 43.3997 46.8688 39.6254C48.9572 36.3389 50.1928 32.5937 50.4773 28.7281C50.5474 27.7754 51.3152 27 52.2704 27Z" fill="#06C44F"/>
<path fill-rule="evenodd" clip-rule="evenodd" d="M27.4071 19.3144C27.293 19.2839 27.1729 19.2839 27.0588 19.3144C27.0147 19.3263 26.9405 19.3576 26.789 19.4839C26.6308 19.6158 26.4395 19.8063 26.1454 20.1003C25.8514 20.3944 25.6609 20.5858 25.529 20.7439C25.4028 20.8954 25.3713 20.9696 25.3595 21.0137C25.329 21.1278 25.329 21.2479 25.3595 21.362C25.3713 21.4062 25.4028 21.4803 25.529 21.6318C25.6609 21.79 25.8514 21.9814 26.1454 22.2754L31.6515 27.7815C31.9456 28.0755 32.1369 28.266 32.2951 28.3979C32.4466 28.5242 32.5208 28.5556 32.5649 28.5674C32.679 28.5979 32.7991 28.5979 32.9132 28.5674C32.9573 28.5556 33.0315 28.5242 33.183 28.3979C33.3412 28.266 33.5326 28.0755 33.8266 27.7815C34.1206 27.4874 34.3112 27.2961 34.443 27.1379C34.5693 26.9864 34.6007 26.9123 34.6125 26.8681C34.6431 26.754 34.6431 26.6339 34.6125 26.5198C34.6007 26.4757 34.5693 26.4015 34.443 26.25C34.3112 26.0918 34.1206 25.9004 33.8266 25.6064L33.2148 24.9946C32.8018 24.5816 32.8018 23.912 33.2148 23.499C33.5157 23.1981 33.6959 23.0159 33.8088 22.8681C33.8607 22.8001 33.8821 22.7593 33.891 22.738C33.8973 22.7229 33.897 22.7186 33.8969 22.7175C33.897 22.7165 33.8973 22.7118 33.891 22.6966C33.8821 22.6753 33.8607 22.6346 33.8088 22.5666C33.6959 22.4187 33.5157 22.2366 33.2148 21.9357L31.9913 20.7121C31.6903 20.4112 31.5082 20.231 31.3603 20.1182C31.2923 20.0663 31.2516 20.0448 31.2303 20.0359C31.2152 20.0296 31.2108 20.0299 31.2098 20.03C31.2097 20.03 31.2098 20.03 31.2098 20.03C31.2091 20.03 31.2052 20.0291 31.1889 20.0359C31.1676 20.0448 31.1268 20.0663 31.0588 20.1182C30.9348 20.2128 30.7865 20.3551 30.5642 20.5762L31.9574 21.9695C32.2015 22.2136 32.2015 22.6093 31.9574 22.8534C31.7133 23.0975 31.3176 23.0975 31.0735 22.8534L28.3205 20.1003C28.0265 19.8063 27.8351 19.6158 27.6769 19.4839C27.5254 19.3576 27.4513 19.3263 27.4071 19.3144ZM29.6802 19.6923L29.1853 19.1973C28.9158 18.9278 28.6843 18.6964 28.4774 18.5239C28.2591 18.3418 28.0223 18.1852 27.7307 18.107C27.4046 18.0197 27.0613 18.0197 26.7353 18.107C26.4436 18.1852 26.2068 18.3418 25.9885 18.5239C25.7817 18.6964 25.5503 18.9278 25.2807 19.1974L25.2424 19.2356C24.9729 19.5051 24.7415 19.7365 24.569 19.9434C24.3869 20.1618 24.2303 20.3985 24.1521 20.6902C24.0648 21.0162 24.0648 21.3595 24.1521 21.6855C24.2303 21.9773 24.3869 22.214 24.569 22.4323C24.7415 22.6392 24.9729 22.8706 25.2424 23.1401L25.7373 23.635L23.5623 25.8101L23.0674 25.3152C22.7978 25.0456 22.5664 24.8142 22.3596 24.6417C22.1412 24.4597 21.9045 24.3031 21.6128 24.2249C21.2868 24.1375 20.9435 24.1375 20.6175 24.2249C20.3257 24.303 20.089 24.4597 19.8707 24.6417C19.6638 24.8142 19.4324 25.0456 19.1628 25.3152L19.1246 25.3534C18.855 25.623 18.6236 25.8544 18.4511 26.0613C18.269 26.2796 18.1124 26.5163 18.0343 26.8081C17.9469 27.1341 17.9469 27.4773 18.0343 27.8034C18.1124 28.0951 18.269 28.3318 18.4511 28.5502C18.6236 28.7571 18.855 28.9884 19.1246 29.258L19.1437 29.2772L19.6195 29.7529C19.3975 29.9758 19.1979 30.1816 19.0517 30.3733C18.865 30.6179 18.7072 30.9116 18.7072 31.2823C18.7072 31.6531 18.865 31.9468 19.0517 32.1913C19.2216 32.4141 19.4634 32.6558 19.7288 32.9212L21.0057 34.1981C21.2711 34.4636 21.5129 34.7053 21.7356 34.8753C21.9802 35.0619 22.2738 35.2197 22.6446 35.2197C23.0154 35.2197 23.309 35.0619 23.5536 34.8753C23.7453 34.729 23.9511 34.5294 24.174 34.3074L24.669 34.8024C24.9385 35.0719 25.1699 35.3033 25.3768 35.4758C25.5951 35.6578 25.8318 35.8145 26.1235 35.8927C26.4496 35.98 26.7928 35.98 27.1188 35.8927C27.4106 35.8145 27.6473 35.6578 27.8657 35.4758C28.0725 35.3033 28.3039 35.0719 28.5734 34.8023L28.6118 34.7641C28.8813 34.4945 29.1128 34.2632 29.2852 34.0563C29.4673 33.8379 29.6238 33.6012 29.702 33.3095C29.7894 32.9834 29.7894 32.6402 29.702 32.3142C29.6238 32.0224 29.4673 31.7857 29.2852 31.5673C29.1128 31.3605 28.8813 31.1291 28.6117 30.8595L28.1168 30.3647L30.2919 28.1896L30.7868 28.6845C31.0563 28.9541 31.2878 29.1855 31.4946 29.3579C31.7129 29.54 31.9497 29.6966 32.2414 29.7748C32.5674 29.8622 32.9107 29.8622 33.2367 29.7748C33.5284 29.6966 33.7652 29.54 33.9835 29.3579C34.1904 29.1855 34.4218 28.9541 34.6913 28.6845L34.7296 28.6463C34.9992 28.3767 35.2306 28.1453 35.4031 27.9384C35.5851 27.7201 35.7418 27.4833 35.8199 27.1916C35.9073 26.8656 35.9073 26.5223 35.8199 26.1963C35.7418 25.9046 35.5851 25.6678 35.4031 25.4495C35.2306 25.2426 34.9992 25.0112 34.7296 24.7416L34.2347 24.2467C34.4567 24.0239 34.6563 23.8181 34.8025 23.6263C34.9892 23.3817 35.1469 23.0881 35.1469 22.7173C35.1469 22.3465 34.9892 22.0529 34.8025 21.8083C34.6326 21.5856 34.3908 21.3439 34.1253 21.0785L32.8484 19.8016C32.583 19.5361 32.3413 19.2943 32.1186 19.1244C31.874 18.9378 31.5803 18.78 31.2096 18.78C30.8388 18.78 30.5452 18.9378 30.3006 19.1244C30.1088 19.2707 29.9031 19.4702 29.6802 19.6923ZM34.0987 24.1108C34.0986 24.1107 34.0988 24.1108 34.0987 24.1108V24.1108ZM29.408 27.3058L26.6212 24.5189L24.4461 26.6939L27.233 29.4808L29.408 27.3058ZM20.5035 30.6369C20.2823 30.8593 20.1401 31.0075 20.0454 31.1316C19.9935 31.1996 19.9721 31.2403 19.9632 31.2617C19.9569 31.2768 19.9572 31.2811 19.9572 31.2822C19.9572 31.2833 19.9569 31.2879 19.9632 31.303C19.9721 31.3243 19.9935 31.3651 20.0454 31.4331C20.1582 31.5809 20.3385 31.7631 20.6394 32.064L21.863 33.2875C22.1638 33.5884 22.346 33.7687 22.4938 33.8815C22.5618 33.9334 22.6026 33.9548 22.6239 33.9638C22.6402 33.9706 22.6439 33.9697 22.6446 33.9697C22.6445 33.9697 22.6446 33.9697 22.6446 33.9697C22.6457 33.9698 22.6501 33.9701 22.6653 33.9638C22.6866 33.9548 22.7273 33.9334 22.7953 33.8815C22.9432 33.7687 23.1253 33.5884 23.4262 33.2875C23.8392 32.8745 24.5089 32.8745 24.9219 33.2875L25.5337 33.8993C25.8277 34.1933 26.0191 34.3839 26.1773 34.5158C26.3288 34.6421 26.4029 34.6734 26.4471 34.6853C26.5612 34.7158 26.6813 34.7158 26.7953 34.6853C26.8395 34.6734 26.9137 34.6421 27.0652 34.5158C27.2233 34.3839 27.4147 34.1933 27.7088 33.8993C28.0028 33.6053 28.1933 33.4139 28.3252 33.2558C28.4515 33.1043 28.4828 33.0301 28.4947 32.9859C28.5252 32.8718 28.5252 32.7518 28.4947 32.6377C28.4828 32.5935 28.4514 32.5193 28.3252 32.3678C28.1933 32.2097 28.0028 32.0183 27.7088 31.7243L22.2026 26.2182C21.9086 25.9242 21.7172 25.7337 21.5591 25.6018C21.4076 25.4755 21.3334 25.4441 21.2893 25.4323C21.1752 25.4018 21.0551 25.4018 20.941 25.4323C20.8968 25.4441 20.8226 25.4755 20.6711 25.6018C20.513 25.7337 20.3216 25.9242 20.0276 26.2182C19.7336 26.5123 19.543 26.7036 19.4112 26.8618C19.2849 27.0133 19.2535 27.0874 19.2417 27.1316C19.2111 27.2457 19.2111 27.3658 19.2417 27.4798C19.2535 27.524 19.2849 27.5982 19.4112 27.7497C19.543 27.9078 19.7336 28.0993 20.0276 28.3933L22.7806 31.1463C23.0247 31.3903 23.0247 31.7861 22.7806 32.0302C22.5366 32.2743 22.1408 32.2743 21.8968 32.0302L20.5035 30.6369Z" fill="#06C44F"/>
</svg>
