<svg width="41" height="41" viewBox="0 0 41 41" fill="none" xmlns="http://www.w3.org/2000/svg">
<rect width="40.4286" height="40.4286" rx="6" fill="#EFEFEF"/>
<path d="M28.5678 9.47559C29.2007 9.47559 29.8077 9.72701 30.2553 10.1745C30.7028 10.6221 30.9542 11.2291 30.9542 11.862V28.5669C30.9542 29.1998 30.7028 29.8068 30.2553 30.2543C29.8077 30.7018 29.2007 30.9533 28.5678 30.9533H11.863C11.2301 30.9533 10.6231 30.7018 10.1755 30.2543C9.72799 29.8068 9.47656 29.1998 9.47656 28.5669V11.862C9.47656 11.2291 9.72799 10.6221 10.1755 10.1745C10.6231 9.72701 11.2301 9.47559 11.863 9.47559H28.5678ZM27.9712 27.9703V21.6463C27.9712 20.6146 27.5614 19.6252 26.8319 18.8957C26.1024 18.1662 25.113 17.7564 24.0814 17.7564C23.0672 17.7564 21.8859 18.3769 21.3132 19.3076V17.9831H17.9841V27.9703H21.3132V22.0878C21.3132 21.169 22.0529 20.4173 22.9717 20.4173C23.4147 20.4173 23.8396 20.5933 24.1529 20.9065C24.4662 21.2198 24.6422 21.6447 24.6422 22.0878V27.9703H27.9712ZM14.1062 16.1098C14.6378 16.1098 15.1477 15.8986 15.5237 15.5227C15.8996 15.1467 16.1108 14.6369 16.1108 14.1052C16.1108 12.9955 15.2159 12.0887 14.1062 12.0887C13.5714 12.0887 13.0585 12.3012 12.6803 12.6793C12.3021 13.0575 12.0897 13.5704 12.0897 14.1052C12.0897 15.2149 12.9965 16.1098 14.1062 16.1098ZM15.7648 27.9703V17.9831H12.4596V27.9703H15.7648Z" fill="#212121"/>
</svg>
