<svg width="41" height="41" viewBox="0 0 41 41" fill="none" xmlns="http://www.w3.org/2000/svg">
<rect width="40.4286" height="40.4286" rx="6" fill="#EFEFEF"/>
<path d="M20.2172 8.28223C26.8073 8.28223 32.1493 13.6242 32.1493 20.2143C32.1493 26.8043 26.8073 32.1463 20.2172 32.1463C18.1085 32.1499 16.0369 31.5919 14.2154 30.5295L8.28995 32.1463L9.90316 26.2185C8.83997 24.3964 8.28148 22.3239 8.28517 20.2143C8.28517 13.6242 13.6272 8.28223 20.2172 8.28223ZM16.1508 14.6062L15.9121 14.6158C15.7578 14.6264 15.6071 14.6669 15.4683 14.7351C15.3389 14.8085 15.2207 14.9001 15.1175 15.0071C14.9743 15.142 14.8931 15.2589 14.806 15.3722C14.3647 15.9461 14.1271 16.6505 14.1307 17.3744C14.1331 17.9591 14.2858 18.5283 14.5244 19.0604C15.0125 20.1367 15.8155 21.2762 16.8751 22.3322C17.1304 22.5864 17.381 22.8417 17.6506 23.0792C18.9673 24.2382 20.5361 25.0742 22.2325 25.5205L22.9103 25.6243C23.131 25.6362 23.3518 25.6195 23.5737 25.6087C23.9211 25.5904 24.2604 25.4964 24.5676 25.3331C24.7238 25.2524 24.8762 25.1648 25.0246 25.0706C25.0246 25.0706 25.0752 25.0364 25.1738 24.9632C25.3349 24.8439 25.4339 24.7592 25.5675 24.6196C25.6678 24.5162 25.7513 24.3961 25.8181 24.2592C25.9112 24.0647 26.0043 23.6937 26.0424 23.3846C26.0711 23.1484 26.0627 23.0195 26.0591 22.9396C26.0544 22.8119 25.9482 22.6794 25.8324 22.6234L25.138 22.3119C25.138 22.3119 24.0999 21.8597 23.4651 21.5709C23.3987 21.542 23.3275 21.5254 23.2551 21.522C23.1735 21.5135 23.0909 21.5226 23.0131 21.5487C22.9353 21.5749 22.864 21.6175 22.8041 21.6736C22.7981 21.6712 22.7182 21.7392 21.8555 22.7844C21.806 22.851 21.7378 22.9013 21.6596 22.9289C21.5814 22.9565 21.4967 22.9602 21.4164 22.9396C21.3386 22.9188 21.2625 22.8925 21.1885 22.8608C21.0405 22.7988 20.9892 22.7749 20.8878 22.7319C20.2028 22.4335 19.5686 22.0297 19.0085 21.5351C18.8582 21.4039 18.7186 21.2607 18.5754 21.1223C18.106 20.6727 17.6969 20.1641 17.3583 19.6093L17.2879 19.496C17.2381 19.4194 17.1973 19.3373 17.1662 19.2514C17.1209 19.076 17.239 18.9352 17.239 18.9352C17.239 18.9352 17.5289 18.6178 17.6638 18.4459C17.795 18.2789 17.906 18.1166 17.9776 18.0009C18.1184 17.7742 18.1625 17.5415 18.0885 17.3613C17.7544 16.5452 17.4092 15.7334 17.0528 14.926C16.9824 14.7661 16.7736 14.6516 16.5839 14.6289C16.5195 14.6209 16.455 14.6146 16.3906 14.6098C16.2304 14.6006 16.0697 14.6022 15.9097 14.6146L16.1508 14.6062Z" fill="#212121"/>
</svg>
