<svg width="24" height="24" viewBox="0 0 24 24" fill="none" xmlns="http://www.w3.org/2000/svg">
<rect width="24" height="24" rx="2.72727" fill="#06C44F"/>
<g clip-path="url(#clip0_0_2332)">
<path d="M5.57123 17.5366C6.32366 18.6129 9.5989 19.4579 11.1458 17.4428C12.8189 18.2431 15.5786 17.995 17.8254 16.7421C18.1378 16.5679 18.4334 16.348 18.6144 16.0394C19.0231 15.3427 19.0328 14.3761 18.2872 12.9499C17.0442 9.84698 14.8086 7.12326 13.906 6.02792C13.7207 5.85894 12.5384 5.61896 11.8174 5.38836C11.499 5.28968 10.906 5.22426 10.1967 6.15892C9.86046 6.60203 8.33301 7.6903 10.2711 8.42214C10.5713 8.49854 10.792 8.63943 12.1618 8.3892C12.3402 8.35824 12.7856 8.3892 13.0995 8.94011L13.755 9.87758C13.816 9.96485 13.8556 10.0653 13.8678 10.171C13.9826 11.1703 13.9789 12.4214 14.536 13.0549C13.6755 12.4326 11.4267 11.6936 9.73229 13.7966M5.56055 12.6265C6.36601 11.8605 8.7006 10.6504 11.1712 12.3476" stroke="#FDFDFD" stroke-width="1.5" stroke-linecap="round" stroke-linejoin="round"/>
</g>
<defs>
<clipPath id="clip0_0_2332">
<rect width="16" height="16" fill="white" transform="translate(4.22656 4)"/>
</clipPath>
</defs>
</svg>
