<svg width="54" height="54" viewBox="0 0 54 54" fill="none" xmlns="http://www.w3.org/2000/svg">
<path d="M25.2578 22L26.9245 26.1667M26.9245 26.1667H29.4245C29.8665 26.1667 30.2904 25.9911 30.603 25.6785C30.9156 25.366 31.0911 24.942 31.0911 24.5V21.1667C31.0911 20.7246 30.9156 20.3007 30.603 19.9882C30.2904 19.6756 29.8665 19.5 29.4245 19.5H24.4245C23.9825 19.5 23.5585 19.6756 23.246 19.9882C22.9334 20.3007 22.7578 20.7246 22.7578 21.1667V24.5C22.7578 24.942 22.9334 25.366 23.246 25.6785C23.5585 25.9911 23.9825 26.1667 24.4245 26.1667H26.9245Z" stroke="#07B64A" stroke-width="1.25" stroke-linecap="round" stroke-linejoin="round"/>
<path d="M31.0924 21.167H32.7591C33.2011 21.167 33.6251 21.3426 33.9376 21.6551C34.2502 21.9677 34.4258 22.3916 34.4258 22.8337V32.8337C34.4258 33.2757 34.2502 33.6996 33.9376 34.0122C33.6251 34.3247 33.2011 34.5003 32.7591 34.5003H21.0924C20.6504 34.5003 20.2265 34.3247 19.9139 34.0122C19.6014 33.6996 19.4258 33.2757 19.4258 32.8337V22.8337C19.4258 22.3916 19.6014 21.9677 19.9139 21.6551C20.2265 21.3426 20.6504 21.167 21.0924 21.167H22.7591M25.2591 31.167H28.5924" stroke="#07B64A" stroke-width="1.25" stroke-linecap="round" stroke-linejoin="round"/>
<path d="M54 27C54 41.9117 41.9117 54 27 54C12.0883 54 0 41.9117 0 27C0 12.0883 12.0883 0 27 0C41.9117 0 54 12.0883 54 27ZM3.25347 27C3.25347 40.1148 13.8852 50.7465 27 50.7465C40.1148 50.7465 50.7465 40.1148 50.7465 27C50.7465 13.8852 40.1148 3.25347 27 3.25347C13.8852 3.25347 3.25347 13.8852 3.25347 27Z" fill="#A5A5A5" fill-opacity="0.32"/>
<path d="M52.2704 27C53.2256 27 54.0058 27.7752 53.9446 28.7285C53.6545 33.2518 52.2293 37.6394 49.7884 41.4806C47.0377 45.8095 43.1109 49.2654 38.4675 51.4437C33.8242 53.6221 28.6565 54.4329 23.5691 53.7811C18.4818 53.1294 13.6853 51.0422 9.74108 47.7637C5.79682 44.4852 2.86795 40.151 1.29726 35.2686C-0.273435 30.3861 -0.420975 25.1572 0.871907 20.1939C2.16479 15.2306 4.8446 10.7383 8.59772 7.24257C11.928 4.14068 15.9812 1.93743 20.3752 0.825336C21.3013 0.590966 22.206 1.21625 22.3806 2.15538C22.5553 3.09451 21.9332 3.99108 21.0095 4.23415C17.261 5.22049 13.8047 7.11992 10.9554 9.77385C7.68311 12.8217 5.34662 16.7385 4.21938 21.0659C3.09214 25.3933 3.22078 29.9523 4.59024 34.2092C5.9597 38.4662 8.51332 42.245 11.9523 45.1035C15.3912 47.9619 19.5731 49.7818 24.0087 50.35C28.4443 50.9182 32.9499 50.2113 36.9983 48.312C41.0468 46.4128 44.4705 43.3997 46.8688 39.6254C48.9572 36.3389 50.1928 32.5937 50.4773 28.7281C50.5474 27.7754 51.3152 27 52.2704 27Z" fill="#06C44F"/>
</svg>
