<svg width="127" height="19" viewBox="0 0 127 19" fill="none" xmlns="http://www.w3.org/2000/svg">
<path d="M14.5033 6.3335H4.48875L4.14042 3.16683H14.8596M9.5 15.0418C8.87011 15.0418 8.26602 14.7916 7.82062 14.3462C7.37522 13.9008 7.125 13.2967 7.125 12.6668C7.125 11.0835 9.5 8.39183 9.5 8.39183C9.5 8.39183 11.875 11.0835 11.875 12.6668C11.875 13.2967 11.6248 13.9008 11.1794 14.3462C10.734 14.7916 10.1299 15.0418 9.5 15.0418ZM2.375 1.5835L3.95833 16.0156C4.06125 16.8072 4.72625 17.4168 5.54167 17.4168H13.4583C14.25 17.4168 14.9388 16.8072 15.0417 16.0156L16.625 1.5835H2.375Z" fill="#27BEEA"/>
<path d="M14.5033 6.3335H4.48875L4.14042 3.16683H14.8596M9.5 15.0418C8.87011 15.0418 8.26602 14.7916 7.82062 14.3462C7.37522 13.9008 7.125 13.2967 7.125 12.6668C7.125 11.0835 9.5 8.39183 9.5 8.39183C9.5 8.39183 11.875 11.0835 11.875 12.6668C11.875 13.2967 11.6248 13.9008 11.1794 14.3462C10.734 14.7916 10.1299 15.0418 9.5 15.0418ZM2.375 1.5835L3.95833 16.0156C4.06125 16.8072 4.72625 17.4168 5.54167 17.4168H13.4583C14.25 17.4168 14.9388 16.8072 15.0417 16.0156L16.625 1.5835H2.375Z" stroke="#27BEEA" stroke-width="0.791667"/>
<path d="M41.5033 6.3335H31.4888L31.1404 3.16683H41.8596M36.5 15.0418C35.8701 15.0418 35.266 14.7916 34.8206 14.3462C34.3752 13.9008 34.125 13.2967 34.125 12.6668C34.125 11.0835 36.5 8.39183 36.5 8.39183C36.5 8.39183 38.875 11.0835 38.875 12.6668C38.875 13.2967 38.6248 13.9008 38.1794 14.3462C37.734 14.7916 37.1299 15.0418 36.5 15.0418ZM29.375 1.5835L30.9583 16.0156C31.0613 16.8072 31.7263 17.4168 32.5417 17.4168H40.4583C41.25 17.4168 41.9388 16.8072 42.0417 16.0156L43.625 1.5835H29.375Z" fill="#BBBBBB"/>
<path d="M41.5033 6.3335H31.4888L31.1404 3.16683H41.8596M36.5 15.0418C35.8701 15.0418 35.266 14.7916 34.8206 14.3462C34.3752 13.9008 34.125 13.2967 34.125 12.6668C34.125 11.0835 36.5 8.39183 36.5 8.39183C36.5 8.39183 38.875 11.0835 38.875 12.6668C38.875 13.2967 38.6248 13.9008 38.1794 14.3462C37.734 14.7916 37.1299 15.0418 36.5 15.0418ZM29.375 1.5835L30.9583 16.0156C31.0613 16.8072 31.7263 17.4168 32.5417 17.4168H40.4583C41.25 17.4168 41.9388 16.8072 42.0417 16.0156L43.625 1.5835H29.375Z" stroke="#BBBBBB" stroke-width="0.791667"/>
<path d="M68.5033 6.3335H58.4888L58.1404 3.16683H68.8596M63.5 15.0418C62.8701 15.0418 62.266 14.7916 61.8206 14.3462C61.3752 13.9008 61.125 13.2967 61.125 12.6668C61.125 11.0835 63.5 8.39183 63.5 8.39183C63.5 8.39183 65.875 11.0835 65.875 12.6668C65.875 13.2967 65.6248 13.9008 65.1794 14.3462C64.734 14.7916 64.1299 15.0418 63.5 15.0418ZM56.375 1.5835L57.9583 16.0156C58.0613 16.8072 58.7263 17.4168 59.5417 17.4168H67.4583C68.25 17.4168 68.9388 16.8072 69.0417 16.0156L70.625 1.5835H56.375Z" fill="#BBBBBB"/>
<path d="M68.5033 6.3335H58.4888L58.1404 3.16683H68.8596M63.5 15.0418C62.8701 15.0418 62.266 14.7916 61.8206 14.3462C61.3752 13.9008 61.125 13.2967 61.125 12.6668C61.125 11.0835 63.5 8.39183 63.5 8.39183C63.5 8.39183 65.875 11.0835 65.875 12.6668C65.875 13.2967 65.6248 13.9008 65.1794 14.3462C64.734 14.7916 64.1299 15.0418 63.5 15.0418ZM56.375 1.5835L57.9583 16.0156C58.0613 16.8072 58.7263 17.4168 59.5417 17.4168H67.4583C68.25 17.4168 68.9388 16.8072 69.0417 16.0156L70.625 1.5835H56.375Z" stroke="#BBBBBB" stroke-width="0.791667"/>
<path d="M95.5033 6.3335H85.4888L85.1404 3.16683H95.8596M90.5 15.0418C89.8701 15.0418 89.266 14.7916 88.8206 14.3462C88.3752 13.9008 88.125 13.2967 88.125 12.6668C88.125 11.0835 90.5 8.39183 90.5 8.39183C90.5 8.39183 92.875 11.0835 92.875 12.6668C92.875 13.2967 92.6248 13.9008 92.1794 14.3462C91.734 14.7916 91.1299 15.0418 90.5 15.0418ZM83.375 1.5835L84.9583 16.0156C85.0613 16.8072 85.7263 17.4168 86.5417 17.4168H94.4583C95.25 17.4168 95.9388 16.8072 96.0417 16.0156L97.625 1.5835H83.375Z" fill="#BBBBBB"/>
<path d="M95.5033 6.3335H85.4888L85.1404 3.16683H95.8596M90.5 15.0418C89.8701 15.0418 89.266 14.7916 88.8206 14.3462C88.3752 13.9008 88.125 13.2967 88.125 12.6668C88.125 11.0835 90.5 8.39183 90.5 8.39183C90.5 8.39183 92.875 11.0835 92.875 12.6668C92.875 13.2967 92.6248 13.9008 92.1794 14.3462C91.734 14.7916 91.1299 15.0418 90.5 15.0418ZM83.375 1.5835L84.9583 16.0156C85.0613 16.8072 85.7263 17.4168 86.5417 17.4168H94.4583C95.25 17.4168 95.9388 16.8072 96.0417 16.0156L97.625 1.5835H83.375Z" stroke="#BBBBBB" stroke-width="0.791667"/>
<path d="M122.503 6.3335H112.489L112.14 3.16683H122.86M117.5 15.0418C116.87 15.0418 116.266 14.7916 115.821 14.3462C115.375 13.9008 115.125 13.2967 115.125 12.6668C115.125 11.0835 117.5 8.39183 117.5 8.39183C117.5 8.39183 119.875 11.0835 119.875 12.6668C119.875 13.2967 119.625 13.9008 119.179 14.3462C118.734 14.7916 118.13 15.0418 117.5 15.0418ZM110.375 1.5835L111.958 16.0156C112.061 16.8072 112.726 17.4168 113.542 17.4168H121.458C122.25 17.4168 122.939 16.8072 123.042 16.0156L124.625 1.5835H110.375Z" fill="#BBBBBB"/>
<path d="M122.503 6.3335H112.489L112.14 3.16683H122.86M117.5 15.0418C116.87 15.0418 116.266 14.7916 115.821 14.3462C115.375 13.9008 115.125 13.2967 115.125 12.6668C115.125 11.0835 117.5 8.39183 117.5 8.39183C117.5 8.39183 119.875 11.0835 119.875 12.6668C119.875 13.2967 119.625 13.9008 119.179 14.3462C118.734 14.7916 118.13 15.0418 117.5 15.0418ZM110.375 1.5835L111.958 16.0156C112.061 16.8072 112.726 17.4168 113.542 17.4168H121.458C122.25 17.4168 122.939 16.8072 123.042 16.0156L124.625 1.5835H110.375Z" stroke="#BBBBBB" stroke-width="0.791667"/>
</svg>
