<svg width="41" height="41" viewBox="0 0 41 41" fill="none" xmlns="http://www.w3.org/2000/svg">
<rect width="40.4286" height="40.4286" rx="6" fill="#EFEFEF"/>
<g clip-path="url(#clip0_0_2905)">
<path d="M15.6257 8.70361H25.6486C29.4668 8.70361 32.5692 11.8059 32.5692 15.6242V25.6471C32.5692 27.4826 31.84 29.2428 30.5422 30.5407C29.2443 31.8386 27.484 32.5677 25.6486 32.5677H15.6257C11.8074 32.5677 8.70508 29.4654 8.70508 25.6471V15.6242C8.70508 13.7887 9.43421 12.0285 10.7321 10.7306C12.0299 9.43274 13.7902 8.70361 15.6257 8.70361ZM15.387 11.09C14.2478 11.09 13.1552 11.5426 12.3496 12.3482C11.5441 13.1537 11.0915 14.2463 11.0915 15.3856V25.8858C11.0915 28.2602 13.0125 30.1813 15.387 30.1813H25.8872C27.0265 30.1813 28.1191 29.7287 28.9246 28.9232C29.7302 28.1176 30.1828 27.025 30.1828 25.8858V15.3856C30.1828 13.0111 28.2617 11.09 25.8872 11.09H15.387ZM26.9014 12.8798C27.297 12.8798 27.6764 13.037 27.9561 13.3167C28.2358 13.5964 28.393 13.9758 28.393 14.3713C28.393 14.7669 28.2358 15.1463 27.9561 15.426C27.6764 15.7057 27.297 15.8628 26.9014 15.8628C26.5059 15.8628 26.1265 15.7057 25.8468 15.426C25.5671 15.1463 25.4099 14.7669 25.4099 14.3713C25.4099 13.9758 25.5671 13.5964 25.8468 13.3167C26.1265 13.037 26.5059 12.8798 26.9014 12.8798ZM20.6371 14.6696C22.2194 14.6696 23.7369 15.2982 24.8557 16.417C25.9746 17.5359 26.6031 19.0534 26.6031 20.6357C26.6031 22.2179 25.9746 23.7354 24.8557 24.8543C23.7369 25.9731 22.2194 26.6017 20.6371 26.6017C19.0548 26.6017 17.5374 25.9731 16.4185 24.8543C15.2997 23.7354 14.6711 22.2179 14.6711 20.6357C14.6711 19.0534 15.2997 17.5359 16.4185 16.417C17.5374 15.2982 19.0548 14.6696 20.6371 14.6696ZM20.6371 17.056C19.6877 17.056 18.7773 17.4332 18.106 18.1045C17.4346 18.7758 17.0575 19.6863 17.0575 20.6357C17.0575 21.585 17.4346 22.4955 18.106 23.1668C18.7773 23.8381 19.6877 24.2153 20.6371 24.2153C21.5865 24.2153 22.497 23.8381 23.1683 23.1668C23.8396 22.4955 24.2167 21.585 24.2167 20.6357C24.2167 19.6863 23.8396 18.7758 23.1683 18.1045C22.497 17.4332 21.5865 17.056 20.6371 17.056Z" fill="#212121"/>
</g>
<defs>
<clipPath id="clip0_0_2905">
<rect width="28.6369" height="28.6369" fill="white" transform="translate(5.89648 5.896)"/>
</clipPath>
</defs>
</svg>
