<svg width="28" height="28" viewBox="0 0 28 28" fill="none" xmlns="http://www.w3.org/2000/svg">
<rect width="28" height="28" rx="3" fill="#EFEFEF"/>
<path d="M22.3327 13.6388C22.3327 18.0414 18.6012 21.611 13.9993 21.611C13.4583 21.6118 12.9187 21.5617 12.3872 21.4619C12.0046 21.39 11.8133 21.3541 11.6798 21.3745C11.5462 21.3949 11.357 21.4955 10.9785 21.6968C9.9078 22.2663 8.65931 22.4673 7.45861 22.244C7.91497 21.6827 8.22664 21.0092 8.36417 20.2872C8.4475 19.8455 8.24102 19.4165 7.93176 19.1024C6.52712 17.6761 5.66602 15.7541 5.66602 13.6388C5.66602 9.23615 9.3975 5.6665 13.9993 5.6665C18.6012 5.6665 22.3327 9.23615 22.3327 13.6388Z" stroke="#212121" stroke-width="1.25" stroke-linejoin="round"/>
<path d="M12.334 12.205C12.334 11.3553 13.0802 10.6665 14.0007 10.6665C14.9212 10.6665 15.6673 11.3553 15.6673 12.205C15.6673 12.5113 15.5704 12.7966 15.4032 13.0363C14.9052 13.7508 14.0007 14.4323 14.0007 15.2819V15.6665" stroke="#212121" stroke-width="1.25" stroke-linecap="round"/>
<path d="M14 17.75H14.0075" stroke="#212121" stroke-width="1.25" stroke-linecap="round" stroke-linejoin="round"/>
</svg>
