<svg width="44" height="44" viewBox="0 0 44 44" fill="none" xmlns="http://www.w3.org/2000/svg">
<path d="M22.5078 16.188C22.5078 16.3806 22.5844 16.5654 22.7206 16.7017C22.8569 16.8379 23.0417 16.9145 23.2343 16.9145C23.427 16.9145 23.6118 16.8379 23.7481 16.7017C23.8843 16.5654 23.9609 16.3806 23.9609 16.188C23.9609 15.9953 23.8843 15.8105 23.7481 15.6742C23.6118 15.538 23.427 15.4614 23.2343 15.4614C23.0417 15.4614 22.8569 15.538 22.7206 15.6742C22.5844 15.8105 22.5078 15.9953 22.5078 16.188Z" stroke="#06C44F" stroke-width="1.45306" stroke-linecap="round" stroke-linejoin="round"/>
<path d="M18.875 28.5384L21.0546 25.6323" stroke="#06C44F" stroke-width="1.45306" stroke-linecap="round" stroke-linejoin="round"/>
<path d="M25.4139 28.5386L23.9608 25.6325L21.7812 23.4529L22.5078 19.0938" stroke="#06C44F" stroke-width="1.45306" stroke-linecap="round" stroke-linejoin="round"/>
<path d="M18.1484 21.9999L19.6015 19.8203L22.5076 19.0938L24.6872 21.2733L26.8668 21.9999" stroke="#06C44F" stroke-width="1.45306" stroke-linecap="round" stroke-linejoin="round"/>
<path d="M44 22C44 34.1503 34.1503 44 22 44C9.84974 44 0 34.1503 0 22C0 9.84974 9.84974 0 22 0C34.1503 0 44 9.84974 44 22ZM2.65097 22C2.65097 32.6862 11.3138 41.349 22 41.349C32.6862 41.349 41.349 32.6862 41.349 22C41.349 11.3138 32.6862 2.65097 22 2.65097C11.3138 2.65097 2.65097 11.3138 2.65097 22Z" fill="#A5A5A5" fill-opacity="0.32"/>
<path d="M42.5907 22C43.369 22 44.0047 22.6317 43.9549 23.4084C43.7185 27.094 42.5572 30.6691 40.5683 33.799C38.327 37.3263 35.1274 40.1421 31.3439 41.9171C27.5605 43.6921 23.3497 44.3527 19.2045 43.8217C15.0593 43.2906 11.151 41.5899 7.93717 38.9185C4.72333 36.2472 2.33685 32.7157 1.05702 28.7373C-0.222799 24.759 -0.343016 20.4985 0.710442 16.4543C1.7639 12.4101 3.94745 8.74969 7.00555 5.90135C9.71914 3.37389 13.0217 1.57864 16.602 0.672495C17.3566 0.481528 18.0938 0.991018 18.2361 1.75624C18.3784 2.52146 17.8715 3.25199 17.1188 3.45005C14.0645 4.25373 11.2483 5.80142 8.92661 7.96388C6.26031 10.4473 4.35651 13.6388 3.43802 17.1648C2.51953 20.6908 2.62434 24.4055 3.7402 27.8742C4.85605 31.3428 6.93678 34.4218 9.73887 36.751C12.541 39.0801 15.9485 40.5629 19.5626 41.0259C23.1768 41.4889 26.8481 40.9129 30.1468 39.3654C33.4455 37.8178 36.2352 35.3627 38.1894 32.2874C39.891 29.6095 40.8978 26.5578 41.1297 23.4081C41.1868 22.6318 41.8124 22 42.5907 22Z" fill="#06C44F"/>
</svg>
