<svg width="21" height="21" viewBox="0 0 21 21" fill="none" xmlns="http://www.w3.org/2000/svg">
<path opacity="0.987" fill-rule="evenodd" clip-rule="evenodd" d="M8.94165 0.0911628C10.0296 -0.0303876 10.6734 -0.0303876 11.8424 0.0911628C13.9116 0.397432 15.8298 1.35391 17.3196 2.8223C16.3129 3.77389 15.3194 4.73939 14.3394 5.7185C12.4626 4.12784 10.3677 3.76069 8.05478 4.61704C6.35808 5.39736 5.17659 6.66189 4.51031 8.41061C3.42152 7.60002 2.34691 6.77055 1.28697 5.92258C1.21331 5.88381 1.12918 5.86961 1.04688 5.88206C2.73057 2.63572 5.36167 0.704917 8.94015 0.0896621" fill="#F44336"/>
<path opacity="0.997" fill-rule="evenodd" clip-rule="evenodd" d="M1.04481 5.88223C1.12985 5.86922 1.21038 5.88273 1.28641 5.92274C2.34635 6.77071 3.42096 7.60018 4.50975 8.41078C4.33842 9.09215 4.23041 9.78789 4.18711 10.4891C4.22413 11.1674 4.33167 11.8332 4.50975 12.4865L1.12585 15.1801C-0.347766 12.1008 -0.374777 9.00152 1.04481 5.88223Z" fill="#FFC107"/>
<path opacity="0.999" fill-rule="evenodd" clip-rule="evenodd" d="M17.1598 18.4424C16.1062 17.5132 15.0031 16.6415 13.8555 15.8313C15.0059 15.019 15.7042 13.9045 15.9503 12.4879H10.3125V8.57278C13.5638 8.54577 16.8137 8.57328 20.062 8.65532C20.6783 12.0017 19.9665 15.019 17.9267 17.7071C17.6841 17.9649 17.4272 18.2103 17.1598 18.4424Z" fill="#448AFF"/>
<path opacity="0.993" fill-rule="evenodd" clip-rule="evenodd" d="M4.5089 12.488C5.73941 15.5463 7.99535 16.9739 11.2767 16.7708C12.1978 16.6642 13.081 16.3424 13.8548 15.8314C15.0033 16.6438 16.1047 17.5141 17.1592 18.4425C15.4884 19.9438 13.3582 20.8346 11.1161 20.9696C10.6067 21.0103 10.0949 21.0103 9.58551 20.9696C5.76592 20.5194 2.94576 18.5896 1.125 15.1802L4.5089 12.488Z" fill="#43A047"/>
</svg>
