<svg width="34" height="34" viewBox="0 0 34 34" fill="none" xmlns="http://www.w3.org/2000/svg">
<circle cx="17" cy="17" r="17" fill="#06C44F"/>
<path d="M7.592 23V21.912L12.152 17.512C12.5573 17.128 12.856 16.792 13.048 16.504C13.2507 16.2053 13.384 15.9333 13.448 15.688C13.5227 15.432 13.56 15.1867 13.56 14.952C13.56 14.376 13.3573 13.9227 12.952 13.592C12.5467 13.2613 11.9547 13.096 11.176 13.096C10.5787 13.096 10.04 13.1973 9.56 13.4C9.08 13.592 8.664 13.896 8.312 14.312L7.224 13.368C7.65067 12.824 8.22133 12.408 8.936 12.12C9.66133 11.8213 10.456 11.672 11.32 11.672C12.0987 11.672 12.776 11.8 13.352 12.056C13.928 12.3013 14.3707 12.6587 14.68 13.128C15 13.5973 15.16 14.152 15.16 14.792C15.16 15.1547 15.112 15.512 15.016 15.864C14.92 16.216 14.7387 16.5893 14.472 16.984C14.2053 17.3787 13.8213 17.8213 13.32 18.312L9.256 22.232L8.872 21.608H15.64V23H7.592ZM20.2035 23.128C19.4142 23.128 18.6462 23.0053 17.8995 22.76C17.1635 22.5147 16.5608 22.184 16.0915 21.768L16.8275 20.504C17.2008 20.856 17.6862 21.144 18.2835 21.368C18.8808 21.592 19.5208 21.704 20.2035 21.704C21.0355 21.704 21.6808 21.528 22.1395 21.176C22.6088 20.8133 22.8435 20.328 22.8435 19.72C22.8435 19.1333 22.6195 18.664 22.1715 18.312C21.7342 17.9493 21.0355 17.768 20.0755 17.768H19.1795V16.648L22.5075 12.552L22.7315 13.192H16.6035V11.8H23.9955V12.888L20.6835 16.968L19.8515 16.472H20.3795C21.7342 16.472 22.7475 16.776 23.4195 17.384C24.1022 17.992 24.4435 18.7653 24.4435 19.704C24.4435 20.3333 24.2888 20.9093 23.9795 21.432C23.6702 21.9547 23.2008 22.3707 22.5715 22.68C21.9528 22.9787 21.1635 23.128 20.2035 23.128Z" fill="#47CD7A" fill-opacity="0.58"/>
<path d="M10 19.5C10 19.5 11.5 19.5 13.5 23C13.5 23 19.0588 13.8333 24 12" stroke="white" stroke-width="1.5" stroke-linecap="round" stroke-linejoin="round"/>
</svg>
