<svg width="42" height="48" viewBox="0 0 42 48" fill="none" xmlns="http://www.w3.org/2000/svg">
<mask id="mask0_0_3994" style="mask-type:luminance" maskUnits="userSpaceOnUse" x="2" y="0" width="37" height="50">
<path d="M2.45312 0H38.5849V49.1641H2.45312V0Z" fill="white"/>
</mask>
<g mask="url(#mask0_0_3994)">
<path fill-rule="evenodd" clip-rule="evenodd" d="M20.7073 49.1646C14.544 49.1646 9.04246 45.9676 5.58631 40.4086C5.50032 40.236 5.47127 40.0635 5.55785 39.9194C5.64384 39.7462 5.817 39.6602 5.98957 39.6602H35.655C35.8276 39.6602 36.0008 39.7462 36.0868 39.8903C36.1734 40.0635 36.1734 40.236 36.0583 40.3801C32.8613 45.7945 26.9856 49.1646 20.7073 49.1646ZM6.88266 40.6102C10.1657 45.4487 15.1773 48.1849 20.7073 48.1849C26.3523 48.1849 31.6806 45.3052 34.791 40.6102H6.88266ZM38.074 32.0855H3.05232C2.82163 32.0855 2.62 31.9123 2.59094 31.6532C2.30333 28.831 2.62 26.1232 3.54156 23.5886C4.31902 20.853 5.817 18.3469 7.89081 16.3597C8.03491 16.2156 8.23595 16.1871 8.43758 16.2737C8.61074 16.3597 8.72579 16.5613 8.69732 16.7629C8.6392 17.2528 8.61074 17.7711 8.61074 18.2894C8.61074 18.6061 8.6392 18.9518 8.6392 19.2685C8.81237 21.8321 9.56136 24.3092 10.8571 26.498C9.84898 22.8687 9.93556 18.5485 11.2029 14.1424C12.9309 8.09409 16.6172 2.99586 20.8223 0.864528C21.3697 0.547853 21.9455 0.260236 22.5213 0.0295491C22.6945 -0.0279743 22.8671 0.000490809 23.0112 0.116131C23.1553 0.231177 23.2128 0.403748 23.1843 0.576911C23.0977 1.00863 23.0112 1.46941 22.9827 1.90173C22.8961 2.50661 22.8671 3.13996 22.8671 3.74485C22.8671 10.6571 25.3441 12.4718 28.8003 14.9489C30.2692 16.0139 31.9107 17.2237 33.6103 18.9808C36.0868 21.573 37.6998 24.8275 38.3047 28.3411C38.3622 28.8019 38.4197 29.2627 38.4773 29.7235C38.5063 30.2418 38.5348 30.7892 38.5348 31.3075C38.5348 31.394 38.5348 31.5091 38.5348 31.5957C38.5348 31.8839 38.3331 32.0855 38.074 32.0855ZM3.5131 31.1349H37.5848C37.5848 30.7026 37.5557 30.2418 37.5272 29.8101C37.4982 29.3778 37.4406 28.946 37.3541 28.5137C36.8067 25.1732 35.2803 22.1203 32.9188 19.6433C31.3058 17.9436 29.6643 16.7629 28.2244 15.7263C24.7108 13.1917 21.917 11.1755 21.917 3.74485C21.917 3.1115 21.9455 2.44909 22.0321 1.81515C22.0321 1.64258 22.0605 1.46941 22.0896 1.29684C21.8305 1.41189 21.5422 1.55599 21.2831 1.7001C17.3086 3.74485 13.795 8.6124 12.1244 14.4015C10.4829 20.1325 10.8862 25.6625 13.2185 29.5794C13.3342 29.781 13.3051 30.0402 13.1035 30.1843C12.9019 30.3574 12.6143 30.3284 12.4701 30.1558C9.61888 27.218 7.94833 23.3876 7.68918 19.3266C7.66012 18.9808 7.66012 18.6351 7.66012 18.2894C7.66012 18.1743 7.66012 18.0877 7.66012 17.9727C6.16273 19.6717 5.06801 21.688 4.43466 23.8769V23.9059C4.4056 23.9634 4.4056 23.9919 4.4056 24.021C3.59909 26.2673 3.31147 28.6578 3.5131 31.1349Z" fill="#D9FFE8"/>
</g>
<path fill-rule="evenodd" clip-rule="evenodd" d="M13.9126 27.0736C13.74 27.0736 13.5384 26.9585 13.4809 26.7569C12.3286 23.5883 12.4727 20.2188 12.8184 17.9433C12.876 17.6842 13.1061 17.5116 13.3652 17.5407C13.6244 17.5691 13.826 17.8283 13.7685 18.0874C13.4518 20.2478 13.2792 23.4448 14.3734 26.4402C14.4599 26.6703 14.3449 26.9585 14.0852 27.0445C14.0276 27.0736 13.9701 27.0736 13.9126 27.0736ZM13.9416 15.5529C13.8841 15.5529 13.8551 15.5529 13.7975 15.5529C13.5384 15.4669 13.3943 15.2077 13.4809 14.9486C14.6616 10.7144 16.9945 6.79744 19.7017 4.49354C19.9033 4.32037 20.22 4.34943 20.3932 4.55106C20.5657 4.75269 20.5367 5.0409 20.335 5.21347C17.772 7.40232 15.5541 11.1467 14.4024 15.2077C14.3449 15.4378 14.1433 15.5529 13.9416 15.5529Z" fill="#D9FFE8"/>
<mask id="mask1_0_3994" style="mask-type:luminance" maskUnits="userSpaceOnUse" x="10" y="20" width="21" height="30">
<path d="M10.3477 20.6345H30.9944V49.1638H10.3477V20.6345Z" fill="white"/>
</mask>
<g mask="url(#mask1_0_3994)">
<path fill-rule="evenodd" clip-rule="evenodd" d="M20.6536 49.1641C15.4978 49.1641 11.0626 45.3047 10.3711 40.2065C10.3711 40.0629 10.4002 39.9188 10.4867 39.8323C10.5727 39.7172 10.7168 39.6597 10.8609 39.6597H30.5031C30.6472 39.6597 30.7913 39.7172 30.8779 39.8323C30.9639 39.9473 30.9929 40.0914 30.9639 40.2355C29.8698 45.4773 25.6071 49.1641 20.6536 49.1641ZM11.4368 40.6097C12.2723 44.9874 16.1602 48.1844 20.6536 48.1844C25.6646 48.1844 28.8616 44.3831 29.8982 40.6097H11.4368ZM26.2986 32.085H13.8563C13.6547 32.085 13.4821 31.9693 13.424 31.7968C13.338 31.5951 13.3955 31.3935 13.5106 31.2494C14.3746 30.4429 15.1811 29.838 15.9301 29.3197C17.9173 27.8798 19.2131 26.9292 19.2131 23.0989C19.2131 22.7531 19.1846 22.4074 19.1556 22.0907C19.1271 21.8316 19.069 21.5724 19.0405 21.3417C19.0115 21.1692 19.069 20.996 19.2131 20.881C19.3287 20.7659 19.5304 20.7369 19.6739 20.795C20.0196 20.9385 20.3653 21.1116 20.682 21.2842C23.764 22.8682 26.2695 27.0733 26.7593 31.5661C26.7878 31.6817 26.7303 31.8258 26.6437 31.9118C26.5577 32.0269 26.4136 32.085 26.2986 32.085ZM15.1236 31.1344H25.7512C25.1754 27.1599 22.9575 23.5021 20.2212 22.1198C20.1928 22.1198 20.1637 22.0907 20.1062 22.0617C20.1347 22.4074 20.1637 22.7531 20.1637 23.0989C20.1637 27.4191 18.5507 28.5998 16.4775 30.0978C16.0452 30.4144 15.5844 30.7602 15.1236 31.1344Z" fill="#D9FFE8"/>
</g>
<path fill-rule="evenodd" clip-rule="evenodd" d="M41.762 40.6099H1.09472C0.489838 40.6099 0 40.1206 0 39.5157V32.2287C0 31.6244 0.489838 31.1345 1.09472 31.1345H39.4C40.9555 31.1345 42.2518 32.4018 42.2518 33.9567V40.1491C42.2518 40.4082 42.0211 40.6099 41.762 40.6099ZM1.09472 32.0851C1.00814 32.0851 0.950619 32.1427 0.950619 32.2287V39.5157C0.950619 39.6017 1.00814 39.6598 1.09472 39.6598H41.2722V33.9567C41.2722 32.9201 40.4372 32.0851 39.4 32.0851H1.09472Z" fill="#D9FFE8"/>
<mask id="mask2_0_3994" style="mask-type:luminance" maskUnits="userSpaceOnUse" x="20" y="39" width="23" height="11">
<path d="M20.2148 39.6116H42.3797V49.164H20.2148V39.6116Z" fill="white"/>
</mask>
<g mask="url(#mask2_0_3994)">
<path fill-rule="evenodd" clip-rule="evenodd" d="M33.2368 49.1638H20.7086C20.4494 49.1638 20.2188 48.9331 20.2188 48.674C20.2188 48.4148 20.4494 48.1842 20.7086 48.1842C26.6412 48.1842 32.2287 45.0162 35.2531 39.8895C35.3397 39.7454 35.4832 39.6594 35.6564 39.6594H41.7622C42.0213 39.6594 42.252 39.8611 42.252 40.1487C42.252 45.1028 38.191 49.1638 33.2368 49.1638ZM26.4402 48.1842H33.2368C37.4995 48.1842 41.0132 44.8436 41.2723 40.6094H35.9155C33.7267 44.2097 30.328 46.8593 26.4402 48.1842Z" fill="#D9FFE8"/>
</g>
<path fill-rule="evenodd" clip-rule="evenodd" d="M4.89609 40.6092C4.63694 40.6092 4.40625 40.4076 4.40625 40.1484V38.737C4.40625 38.4494 4.63694 38.2478 4.89609 38.2478C5.15524 38.2478 5.38533 38.4494 5.38533 38.737V40.1484C5.38533 40.4076 5.15524 40.6092 4.89609 40.6092Z" fill="#D9FFE8"/>
<path fill-rule="evenodd" clip-rule="evenodd" d="M8.95859 40.6092C8.69944 40.6092 8.46875 40.4076 8.46875 40.1484V38.737C8.46875 38.4494 8.69944 38.2478 8.95859 38.2478C9.21774 38.2478 9.41937 38.4494 9.41937 38.737V40.1484C9.44783 40.4076 9.21774 40.6092 8.95859 40.6092Z" fill="#D9FFE8"/>
<path fill-rule="evenodd" clip-rule="evenodd" d="M13.0172 40.6092C12.7574 40.6092 12.5273 40.4076 12.5273 40.1484V38.737C12.5273 38.4494 12.7574 38.2478 13.0172 38.2478C13.2763 38.2478 13.478 38.4494 13.478 38.737V40.1484C13.478 40.4076 13.2763 40.6092 13.0172 40.6092Z" fill="#D9FFE8"/>
<path fill-rule="evenodd" clip-rule="evenodd" d="M17.0506 40.6092C16.7915 40.6092 16.5898 40.4076 16.5898 40.1484V38.737C16.5898 38.4494 16.7915 38.2478 17.0506 38.2478C17.3382 38.2478 17.5399 38.4494 17.5399 38.737V40.1484C17.5399 40.4076 17.3382 40.6092 17.0506 40.6092Z" fill="#D9FFE8"/>
<path fill-rule="evenodd" clip-rule="evenodd" d="M21.1131 40.6092C20.854 40.6092 20.6523 40.4076 20.6523 40.1484V38.737C20.6523 38.4494 20.854 38.2478 21.1131 38.2478C21.3723 38.2478 21.6024 38.4494 21.6024 38.737V40.1484C21.6024 40.4076 21.3723 40.6092 21.1131 40.6092Z" fill="#D9FFE8"/>
<path fill-rule="evenodd" clip-rule="evenodd" d="M25.1717 40.6092C24.912 40.6092 24.7109 40.4076 24.7109 40.1484V38.737C24.7109 38.4494 24.912 38.2478 25.1717 38.2478C25.4309 38.2478 25.661 38.4494 25.661 38.737V40.1484C25.661 40.4076 25.4309 40.6092 25.1717 40.6092Z" fill="#D9FFE8"/>
<path fill-rule="evenodd" clip-rule="evenodd" d="M29.2314 40.6092C28.9723 40.6092 28.7422 40.4076 28.7422 40.1484V38.737C28.7422 38.4494 28.9723 38.2478 29.2314 38.2478C29.4912 38.2478 29.7213 38.4494 29.7213 38.737V40.1484C29.7213 40.4076 29.4912 40.6092 29.2314 40.6092Z" fill="#D9FFE8"/>
<path fill-rule="evenodd" clip-rule="evenodd" d="M33.2939 40.6092C33.0348 40.6092 32.8047 40.4076 32.8047 40.1484V38.737C32.8047 38.4494 33.0348 38.2478 33.2939 38.2478C33.5531 38.2478 33.7547 38.4494 33.7547 38.737V40.1484C33.7547 40.4076 33.5531 40.6092 33.2939 40.6092Z" fill="#D9FFE8"/>
<path fill-rule="evenodd" clip-rule="evenodd" d="M37.3564 40.6092C37.0688 40.6092 36.8672 40.4076 36.8672 40.1484V38.737C36.8672 38.4494 37.0688 38.2478 37.3564 38.2478C37.6156 38.2478 37.8172 38.4494 37.8172 38.737V40.1484C37.8172 40.4076 37.6156 40.6092 37.3564 40.6092Z" fill="#D9FFE8"/>
<path fill-rule="evenodd" clip-rule="evenodd" d="M4.89609 35.7139C4.63694 35.7139 4.40625 35.5122 4.40625 35.2531V31.5953C4.40625 31.3361 4.63694 31.1345 4.89609 31.1345C5.15524 31.1345 5.38533 31.3361 5.38533 31.5953V35.2531C5.38533 35.5122 5.15524 35.7139 4.89609 35.7139Z" fill="#D9FFE8"/>
<path fill-rule="evenodd" clip-rule="evenodd" d="M8.95859 35.7139C8.69944 35.7139 8.46875 35.5122 8.46875 35.2531V31.5953C8.46875 31.3361 8.69944 31.1345 8.95859 31.1345C9.21774 31.1345 9.41937 31.3361 9.41937 31.5953V35.2531C9.44783 35.5122 9.21774 35.7139 8.95859 35.7139Z" fill="#D9FFE8"/>
<path fill-rule="evenodd" clip-rule="evenodd" d="M13.0172 35.7139C12.7574 35.7139 12.5273 35.5122 12.5273 35.2531V31.5953C12.5273 31.3361 12.7574 31.1345 13.0172 31.1345C13.2763 31.1345 13.478 31.3361 13.478 31.5953V35.2531C13.478 35.5122 13.2763 35.7139 13.0172 35.7139Z" fill="#D9FFE8"/>
<path fill-rule="evenodd" clip-rule="evenodd" d="M17.0506 35.7139C16.7915 35.7139 16.5898 35.5122 16.5898 35.2531V31.5953C16.5898 31.3361 16.7915 31.1345 17.0506 31.1345C17.3382 31.1345 17.5399 31.3361 17.5399 31.5953V35.2531C17.5399 35.5122 17.3382 35.7139 17.0506 35.7139Z" fill="#D9FFE8"/>
<path fill-rule="evenodd" clip-rule="evenodd" d="M21.1131 35.7139C20.854 35.7139 20.6523 35.5122 20.6523 35.2531V31.5953C20.6523 31.3361 20.854 31.1345 21.1131 31.1345C21.3723 31.1345 21.6024 31.3361 21.6024 31.5953V35.2531C21.6024 35.5122 21.3723 35.7139 21.1131 35.7139Z" fill="#D9FFE8"/>
<path fill-rule="evenodd" clip-rule="evenodd" d="M25.1717 35.7139C24.912 35.7139 24.7109 35.5122 24.7109 35.2531V31.5953C24.7109 31.3361 24.912 31.1345 25.1717 31.1345C25.4309 31.1345 25.661 31.3361 25.661 31.5953V35.2531C25.661 35.5122 25.4309 35.7139 25.1717 35.7139Z" fill="#D9FFE8"/>
<path fill-rule="evenodd" clip-rule="evenodd" d="M29.2314 35.7139C28.9723 35.7139 28.7422 35.5122 28.7422 35.2531V31.5953C28.7422 31.3361 28.9723 31.1345 29.2314 31.1345C29.4912 31.1345 29.7213 31.3361 29.7213 31.5953V35.2531C29.7213 35.5122 29.4912 35.7139 29.2314 35.7139Z" fill="#D9FFE8"/>
<path fill-rule="evenodd" clip-rule="evenodd" d="M33.2939 35.7139C33.0348 35.7139 32.8047 35.5122 32.8047 35.2531V31.5953C32.8047 31.3361 33.0348 31.1345 33.2939 31.1345C33.5531 31.1345 33.7547 31.3361 33.7547 31.5953V35.2531C33.7547 35.5122 33.5531 35.7139 33.2939 35.7139Z" fill="#D9FFE8"/>
<path fill-rule="evenodd" clip-rule="evenodd" d="M37.3564 35.7139C37.0688 35.7139 36.8672 35.5122 36.8672 35.2531V31.5953C36.8672 31.3361 37.0688 31.1345 37.3564 31.1345C37.6156 31.1345 37.8172 31.3361 37.8172 31.5953V35.2531C37.8172 35.5122 37.6156 35.7139 37.3564 35.7139Z" fill="#D9FFE8"/>
</svg>
