<svg width="61" height="61" viewBox="0 0 61 61" fill="none" xmlns="http://www.w3.org/2000/svg">
<path d="M61 30.5C61 47.3447 47.3447 61 30.5 61C13.6553 61 0 47.3447 0 30.5C0 13.6553 13.6553 0 30.5 0C47.3447 0 61 13.6553 61 30.5ZM3.67521 30.5C3.67521 45.3149 15.6851 57.3248 30.5 57.3248C45.3149 57.3248 57.3248 45.3149 57.3248 30.5C57.3248 15.6851 45.3149 3.67521 30.5 3.67521C15.6851 3.67521 3.67521 15.6851 3.67521 30.5Z" fill="#A5A5A5" fill-opacity="0.32"/>
<path d="M59.0462 30.5C60.1253 30.5 61.0065 31.3757 60.9375 32.4526C60.5677 38.2174 58.5667 43.7737 55.1486 48.4637C51.3461 53.6814 45.9858 57.5578 39.8397 59.5348C33.6936 61.5119 27.0786 61.4875 20.9471 59.4654C15.4357 57.6477 10.5706 54.3001 6.90918 49.8319C6.22525 48.9973 6.43068 47.772 7.30737 47.1429C8.18405 46.5138 9.3994 46.7199 10.0912 47.5481C13.2646 51.3472 17.4454 54.1958 22.171 55.7544C27.5169 57.5175 33.2844 57.5387 38.6431 55.8149C44.0018 54.0912 48.6753 50.7114 51.9907 46.1622C54.9215 42.1408 56.6573 37.389 57.0207 32.4521C57.0999 31.376 57.9671 30.5 59.0462 30.5Z" fill="#06C44F"/>
<path d="M14.408 33.092V32.012L18.548 26.6H20.216L16.136 32.012L15.356 31.772H22.016V33.092H14.408ZM19.016 35V33.092L19.064 31.772V30.08H20.528V35H19.016ZM26.0445 35.12C25.3805 35.12 24.7805 34.952 24.2445 34.616C23.7165 34.28 23.3005 33.792 22.9965 33.152C22.6925 32.504 22.5405 31.72 22.5405 30.8C22.5405 29.88 22.6925 29.1 22.9965 28.46C23.3005 27.812 23.7165 27.32 24.2445 26.984C24.7805 26.648 25.3805 26.48 26.0445 26.48C26.7165 26.48 27.3165 26.648 27.8445 26.984C28.3725 27.32 28.7885 27.812 29.0925 28.46C29.4045 29.1 29.5605 29.88 29.5605 30.8C29.5605 31.72 29.4045 32.504 29.0925 33.152C28.7885 33.792 28.3725 34.28 27.8445 34.616C27.3165 34.952 26.7165 35.12 26.0445 35.12ZM26.0445 33.764C26.4365 33.764 26.7765 33.66 27.0645 33.452C27.3525 33.236 27.5765 32.908 27.7365 32.468C27.9045 32.028 27.9885 31.472 27.9885 30.8C27.9885 30.12 27.9045 29.564 27.7365 29.132C27.5765 28.692 27.3525 28.368 27.0645 28.16C26.7765 27.944 26.4365 27.836 26.0445 27.836C25.6685 27.836 25.3325 27.944 25.0365 28.16C24.7485 28.368 24.5205 28.692 24.3525 29.132C24.1925 29.564 24.1125 30.12 24.1125 30.8C24.1125 31.472 24.1925 32.028 24.3525 32.468C24.5205 32.908 24.7485 33.236 25.0365 33.452C25.3325 33.66 25.6685 33.764 26.0445 33.764Z" fill="#06C44F"/>
<path d="M33.6584 35V28H36.6084C37.3551 28 38.0118 28.1467 38.5784 28.44C39.1518 28.7333 39.5951 29.1433 39.9084 29.67C40.2284 30.1967 40.3884 30.8067 40.3884 31.5C40.3884 32.1933 40.2284 32.8033 39.9084 33.33C39.5951 33.8567 39.1518 34.2667 38.5784 34.56C38.0118 34.8533 37.3551 35 36.6084 35H33.6584ZM34.6584 34.13H36.5484C37.1284 34.13 37.6284 34.02 38.0484 33.8C38.4751 33.58 38.8051 33.2733 39.0384 32.88C39.2718 32.48 39.3884 32.02 39.3884 31.5C39.3884 30.9733 39.2718 30.5133 39.0384 30.12C38.8051 29.7267 38.4751 29.42 38.0484 29.2C37.6284 28.98 37.1284 28.87 36.5484 28.87H34.6584V34.13ZM42.4501 33.72L42.4701 32.49L45.5201 29.7H46.6801L44.3401 32L43.8201 32.44L42.4501 33.72ZM41.6701 35V27.58H42.6301V35H41.6701ZM45.7201 35L43.6401 32.42L44.2601 31.65L46.9001 35H45.7201Z" fill="#100F0F"/>
</svg>
