<svg width="149" height="53" viewBox="0 0 149 53" fill="none" xmlns="http://www.w3.org/2000/svg">
<mask id="mask0_0_4035" style="mask-type:luminance" maskUnits="userSpaceOnUse" x="0" y="13" width="115" height="50">
<path d="M0 13.4868H114.485V62.9998H0V13.4868Z" fill="white"/>
</mask>
<g mask="url(#mask0_0_4035)">
<path d="M113.507 13.6509L112.984 14.3453C101.973 28.922 88.5402 39.5573 72.6883 46.2495C54.2605 54.372 30.1326 59.9368 0.304688 62.9438C31.848 60.9866 57.3811 55.788 76.9074 47.3444C87.7375 42.5588 96.6898 36.7578 103.764 29.9393C108.6 25.3613 111.8 21.943 113.366 19.6828C113.774 19.2066 114.043 18.4075 114.174 17.2856C114.097 16.6777 113.77 15.9525 113.197 15.1156C113.11 14.4085 113.213 13.9215 113.507 13.6509Z" fill="black" fill-opacity="0.996"/>
</g>
<path d="M131.808 5.63135L131.523 6.09493C125.132 16.7537 119.611 24.2305 114.962 28.5254C109.767 33.6627 101.042 40.1366 88.7891 47.9471C98.481 42.6583 105.253 38.6971 109.109 36.0599C113.303 33.3127 117.114 30.2282 120.543 26.8082C124.622 22.782 128.866 17.551 133.273 11.115C133.623 10.7542 133.802 10.0778 133.811 9.08385C133.729 8.7267 133.578 8.41283 133.352 8.13865L131.965 6.72446L131.761 6.38715C131.659 6.15806 131.675 5.90733 131.808 5.63135Z" fill="black" fill-opacity="0.996"/>
<path d="M101.847 7.75781L101.661 8.03019C97.4023 14.2588 92.9433 19.4483 88.2858 23.5989C83.2946 27.9624 74.9285 34.1585 63.1875 42.1891C73.3646 36.2653 79.9035 32.3384 82.804 30.4138C86.9059 27.8054 90.3476 25.2422 93.1291 22.7223C96.5004 19.7875 99.8681 16.0878 103.232 11.6234C103.476 11.4214 103.577 10.9848 103.532 10.312C103.454 10.0613 103.324 9.8304 103.144 9.61935L101.86 8.25206C101.769 8.08791 101.766 7.92376 101.847 7.75781Z" fill="black" fill-opacity="0.996"/>
<mask id="mask1_0_4035" style="mask-type:luminance" maskUnits="userSpaceOnUse" x="123" y="0" width="27" height="31">
<path d="M123.719 0H149.116V30.5729H123.719V0Z" fill="white"/>
</mask>
<g mask="url(#mask1_0_4035)">
<path d="M147.609 -0.0214844L147.485 0.272538C145.414 4.77487 144.084 7.52929 143.495 8.53402C142.493 10.3793 141.384 12.0767 140.166 13.6262C137.692 16.8586 132.257 22.4974 123.867 30.5406C130.769 24.9073 135.152 21.2221 137.017 19.485C139.672 17.1022 141.815 14.8528 143.444 12.7369C145.3 10.3793 147.138 7.13245 148.96 2.9945C149.121 2.75279 149.157 2.34512 149.067 1.76971C148.987 1.56948 148.872 1.40353 148.72 1.26644L147.661 0.411432C147.582 0.29238 147.564 0.148074 147.609 -0.0214844Z" fill="black" fill-opacity="0.996"/>
</g>
</svg>
