<svg width="101" height="19" viewBox="0 0 101 19" fill="none" xmlns="http://www.w3.org/2000/svg">
<path d="M5.16514 8.7069L6.16285 8.63931L6.63597 15.6233L5.63826 15.6909L5.16514 8.7069ZM1.62745 15.9626L0.62974 16.0302L0.156616 9.04619L1.15433 8.9786L1.62745 15.9626ZM5.51718 12.5719L1.3168 12.8565L1.258 11.9885L5.45837 11.7039L5.51718 12.5719ZM11.7595 15.2762L11.6838 14.1588L11.6197 13.9526L11.4906 12.047C11.4631 11.6413 11.3222 11.3368 11.0679 11.1335C10.8198 10.9231 10.4596 10.8339 9.98732 10.8659C9.67471 10.8871 9.37235 10.961 9.08024 11.0877C8.78769 11.2078 8.54417 11.3612 8.34969 11.5482L7.90194 10.8568C8.15978 10.6189 8.47444 10.4305 8.84591 10.2917C9.22358 10.1459 9.62193 10.0588 10.041 10.0304C10.766 9.98126 11.3366 10.1197 11.753 10.4456C12.1693 10.7715 12.402 11.297 12.4511 12.022L12.6674 15.2147L11.7595 15.2762ZM10.0275 15.4537C9.63507 15.4803 9.28469 15.4372 8.97636 15.3244C8.67469 15.2112 8.43615 15.0436 8.26074 14.8217C8.08489 14.593 7.98682 14.329 7.96654 14.0297C7.94717 13.7437 7.99611 13.4798 8.11337 13.238C8.23727 12.9957 8.44748 12.7944 8.74398 12.634C9.04714 12.4731 9.46145 12.3749 9.98691 12.3393L11.6631 12.2258L11.7097 12.9142L10.0735 13.025C9.59455 13.0575 9.27736 13.1591 9.12189 13.33C8.96642 13.5009 8.89635 13.6995 8.91167 13.9256C8.92924 14.185 9.04653 14.3875 9.26354 14.5332C9.4801 14.6722 9.77129 14.7293 10.1371 14.7046C10.4963 14.6802 10.8035 14.5792 11.0587 14.4016C11.3206 14.2235 11.5011 13.9774 11.6001 13.6633L11.8343 14.3089C11.7291 14.6301 11.5231 14.8946 11.2165 15.1025C10.9094 15.3037 10.5131 15.4208 10.0275 15.4537ZM14.3301 15.1021L13.9719 9.81419L14.8898 9.752L14.9871 11.1887L14.873 10.8356C14.9946 10.4599 15.2217 10.1638 15.5545 9.94752C15.8874 9.7312 16.3065 9.60592 16.812 9.57167L16.8749 10.4995C16.8345 10.4956 16.7944 10.495 16.7545 10.4977C16.7212 10.4999 16.688 10.5022 16.6547 10.5044C16.1425 10.5391 15.7472 10.7196 15.4686 11.0458C15.19 11.3721 15.0703 11.8245 15.1095 12.4032L15.2879 15.0372L14.3301 15.1021ZM18.2444 14.8369L17.8861 9.54902L18.8439 9.48414L19.2022 14.772L18.2444 14.8369ZM18.2961 8.49891C18.1099 8.51153 17.9495 8.46225 17.815 8.35109C17.6872 8.23947 17.6174 8.0972 17.6057 7.92426C17.5935 7.74467 17.6432 7.59096 17.7549 7.46312C17.8731 7.33484 18.0254 7.26439 18.2116 7.25177C18.3979 7.23915 18.5549 7.28865 18.6827 7.40027C18.8168 7.50478 18.8896 7.6435 18.9014 7.81644C18.9135 7.99603 18.864 8.15307 18.7529 8.28756C18.6413 8.41539 18.489 8.48584 18.2961 8.49891ZM21.6129 13.3258L21.5497 12.0972L24.4042 9.10746L25.5615 9.02906L23.3823 11.482L22.8933 11.9561L21.6129 13.3258ZM20.9212 14.6556L20.4197 7.25253L21.3775 7.18764L21.879 14.5907L20.9212 14.6556ZM24.9619 14.3818L22.7123 11.9483L23.2789 11.1382L26.1392 14.3021L24.9619 14.3818ZM30.1445 14.0307L30.0688 12.9133L30.0047 12.7072L29.8756 10.8015C29.8482 10.3958 29.7072 10.0913 29.4529 9.88801C29.2048 9.67763 28.8446 9.58844 28.3724 9.62043C28.0598 9.64161 27.7574 9.71555 27.4653 9.84225C27.1727 9.96229 26.9292 10.1158 26.7347 10.3027L26.287 9.61136C26.5448 9.37339 26.8595 9.18502 27.231 9.04626C27.6086 8.9004 28.007 8.81328 28.426 8.78489C29.151 8.73578 29.7217 8.87419 30.138 9.20013C30.5543 9.52607 30.787 10.0515 30.8361 10.7765L31.0524 13.9692L30.1445 14.0307ZM28.4125 14.2082C28.0201 14.2348 27.6697 14.1917 27.3614 14.079C27.0597 13.9658 26.8212 13.7982 26.6458 13.5762C26.4699 13.3475 26.3719 13.0836 26.3516 12.7842C26.3322 12.4982 26.3812 12.2343 26.4984 11.9925C26.6223 11.7503 26.8325 11.5489 27.129 11.3885C27.4322 11.2277 27.8465 11.1294 28.372 11.0938L30.0481 10.9803L30.0948 11.6687L28.4585 11.7795C27.9796 11.812 27.6624 11.9137 27.5069 12.0846C27.3515 12.2555 27.2814 12.454 27.2967 12.6801C27.3143 12.9395 27.4316 13.1421 27.6486 13.2877C27.8651 13.4268 28.1563 13.4839 28.5222 13.4591C28.8813 13.4348 29.1886 13.3338 29.4438 13.1561C29.7057 12.978 29.8861 12.7319 29.9851 12.4178L30.2193 13.0635C30.1141 13.3846 29.9082 13.6492 29.6015 13.857C29.2944 14.0583 28.8981 14.1753 28.4125 14.2082ZM38.5827 13.5393C38.0439 13.5758 37.5425 13.5229 37.0785 13.3806C36.6141 13.2316 36.2047 13.0088 35.8505 12.7121C35.4959 12.4087 35.2108 12.0471 34.9953 11.6274C34.7797 11.2077 34.6544 10.7384 34.6193 10.2196C34.5841 9.70077 34.645 9.21888 34.802 8.77392C34.9589 8.32896 35.1929 7.93559 35.5038 7.59379C35.821 7.24489 36.1998 6.96865 36.6404 6.76507C37.0805 6.55484 37.5733 6.43125 38.1187 6.39431C38.6708 6.35691 39.1824 6.41246 39.6535 6.56095C40.1246 6.70945 40.532 6.95247 40.8756 7.29002L40.2989 7.95051C39.9939 7.69052 39.6676 7.50883 39.3198 7.40544C38.9782 7.29494 38.6112 7.25298 38.2188 7.27957C37.8197 7.3066 37.4517 7.39835 37.1149 7.55481C36.7846 7.71082 36.5013 7.91711 36.2647 8.17368C36.0349 8.42981 35.8613 8.72888 35.7442 9.07092C35.6332 9.40585 35.5908 9.76621 35.617 10.152C35.6427 10.5311 35.7333 10.8825 35.8888 11.206C36.0506 11.5225 36.2629 11.7954 36.5256 12.0249C36.7946 12.2472 37.1032 12.4134 37.4515 12.5234C37.7997 12.6335 38.1733 12.675 38.5724 12.6479C38.9449 12.6227 39.2969 12.5421 39.6285 12.406C39.9663 12.2629 40.2722 12.045 40.5464 11.7525L41.1665 12.4722C40.8404 12.7883 40.4498 13.0386 39.9946 13.2231C39.5455 13.4006 39.0749 13.5059 38.5827 13.5393ZM40.1999 12.4074L40.0242 9.81334L40.982 9.74845L41.1665 12.4722L40.1999 12.4074ZM42.882 13.1678L42.5238 7.87997L43.4816 7.81508L43.8398 13.103L42.882 13.1678ZM42.9338 6.82986C42.7475 6.84247 42.5872 6.7932 42.4527 6.68203C42.3248 6.57042 42.2551 6.42814 42.2434 6.25521C42.2312 6.07562 42.2809 5.92191 42.3925 5.79407C42.5108 5.66578 42.663 5.59533 42.8493 5.58271C43.0355 5.5701 43.1926 5.6196 43.3204 5.73121C43.4544 5.83572 43.5273 5.97445 43.539 6.14739C43.5512 6.32697 43.5017 6.48401 43.3905 6.6185C43.2789 6.74634 43.1267 6.81679 42.9338 6.82986ZM47.7479 12.8983C47.2358 12.933 46.7691 12.8511 46.3481 12.6524C45.9337 12.4533 45.5963 12.1587 45.3361 11.7688C45.0758 11.3788 44.9274 10.9145 44.8909 10.3757C44.8544 9.83692 44.939 9.36011 45.1448 8.94525C45.3501 8.52375 45.6446 8.1864 46.0284 7.93322C46.4188 7.67958 46.8701 7.53542 47.3823 7.50072C47.8279 7.47053 48.2371 7.54304 48.6098 7.71825C48.9825 7.89346 49.2888 8.1734 49.5286 8.55807C49.7752 8.94228 49.9187 9.43371 49.9593 10.0323C49.9998 10.631 49.9272 11.137 49.7414 11.5505C49.5622 11.9636 49.3 12.2854 48.9548 12.5159C48.6092 12.7398 48.2069 12.8673 47.7479 12.8983ZM47.771 12.0549C48.1035 12.0323 48.3977 11.9356 48.6534 11.7646C48.9157 11.5931 49.1139 11.3625 49.248 11.0728C49.3882 10.776 49.4457 10.4413 49.4205 10.0688C49.3948 9.6897 49.2929 9.36919 49.1148 9.10729C48.9429 8.8383 48.7154 8.63655 48.4323 8.50204C48.1559 8.36708 47.8514 8.31086 47.5189 8.33339C47.1796 8.35637 46.8822 8.45337 46.6265 8.62437C46.3708 8.79538 46.1726 9.02597 46.0319 9.31614C45.8907 9.59967 45.833 9.93099 45.8587 10.3101C45.8839 10.6826 45.986 11.0064 46.165 11.2816C46.3436 11.5502 46.5711 11.7519 46.8475 11.8869C47.1239 12.0219 47.4317 12.0778 47.771 12.0549ZM49.6295 12.7107L49.5329 11.284L49.5096 10.0528L49.3267 8.83234L49.0881 5.31041L50.0459 5.24553L50.5474 12.6486L49.6295 12.7107ZM52.2499 12.5332L51.8917 7.24535L52.8495 7.18046L53.2077 12.4683L52.2499 12.5332ZM52.3017 6.19524C52.1154 6.20785 51.9551 6.15858 51.8206 6.04741C51.6928 5.9358 51.623 5.79352 51.6113 5.62059C51.5991 5.441 51.6488 5.28729 51.7604 5.15945C51.8787 5.03116 52.031 4.96071 52.2172 4.94809C52.4034 4.93548 52.5605 4.98498 52.6883 5.09659C52.8223 5.2011 52.8952 5.33983 52.9069 5.51277C52.9191 5.69236 52.8696 5.84939 52.7584 5.98388C52.6468 6.11172 52.4946 6.18217 52.3017 6.19524ZM55.2914 14.3318C55.0387 14.3489 54.7896 14.3223 54.5443 14.2521C54.2995 14.1885 54.0852 14.0827 53.9014 13.9348L54.2618 13.1887C54.4034 13.3061 54.5563 13.3926 54.7204 13.4483C54.8846 13.504 55.0564 13.5258 55.236 13.5136C55.4688 13.4979 55.6576 13.4249 55.8025 13.2949C55.9474 13.1648 56.076 12.9422 56.1883 12.6273L56.4682 11.8766L56.5598 11.7501L58.31 6.81055L59.2478 6.74701L57.0777 12.7374C56.95 13.1202 56.7969 13.4246 56.6184 13.6505C56.4466 13.876 56.2505 14.0396 56.0302 14.1414C55.8104 14.2498 55.5641 14.3133 55.2914 14.3318ZM56.4249 12.4208L53.6407 7.12687L54.6384 7.05928L57.0127 11.6292L56.4249 12.4208ZM62.5129 11.8981C61.9808 11.9342 61.5007 11.8497 61.0725 11.6449C60.6443 11.44 60.2968 11.1428 60.0299 10.7533C59.7625 10.3572 59.6112 9.89966 59.576 9.38085C59.5405 8.85539 59.6286 8.38168 59.8406 7.95972C60.0526 7.53776 60.3571 7.19974 60.7542 6.94566C61.1508 6.68492 61.6151 6.53653 62.1472 6.50048C62.6727 6.46488 63.1495 6.54952 63.5777 6.75438C64.012 6.95214 64.3594 7.246 64.6196 7.63597C64.8861 8.01883 65.0374 8.47632 65.0734 9.00844C65.109 9.5339 65.0209 10.0076 64.8089 10.4296C64.6036 10.8511 64.2993 11.1924 63.896 11.4536C63.4994 11.7143 63.0384 11.8625 62.5129 11.8981ZM62.4561 11.06C62.7954 11.0371 63.0928 10.9401 63.3485 10.7691C63.6108 10.5976 63.809 10.367 63.9431 10.0773C64.0767 9.78091 64.1309 9.44648 64.1057 9.074C64.08 8.69487 63.9814 8.37413 63.81 8.11179C63.638 7.84279 63.4106 7.64104 63.1275 7.50653C62.8511 7.37157 62.5432 7.31558 62.204 7.33856C61.8648 7.36154 61.5673 7.45853 61.3116 7.62954C61.056 7.80055 60.8578 8.03114 60.717 8.32131C60.5759 8.60483 60.5181 8.93616 60.5438 9.31529C60.5691 9.68777 60.6712 10.0116 60.8502 10.2868C61.0288 10.5554 61.2562 10.7571 61.5327 10.8921C61.8091 11.027 62.1169 11.083 62.4561 11.06ZM66.4674 11.5701L66.1092 6.2822L67.0271 6.22001L67.1244 7.65672L67.0103 7.30363C67.1319 6.92789 67.359 6.63186 67.6918 6.41553C68.0246 6.19921 68.4438 6.07393 68.9493 6.03968L69.0122 6.96756C68.9718 6.96361 68.9317 6.96299 68.8918 6.96569C68.8585 6.96794 68.8253 6.9702 68.792 6.97245C68.2798 7.00714 67.8845 7.18761 67.6059 7.51385C67.3273 7.8401 67.2076 8.29255 67.2468 8.87123L67.4252 11.5052L66.4674 11.5701ZM71.9607 11.2581C71.5217 11.2878 71.0986 11.2563 70.6914 11.1637C70.2909 11.0705 69.9717 10.9451 69.7338 10.7875L70.0815 10.0022C70.318 10.1399 70.6062 10.2507 70.946 10.3346C71.2857 10.4184 71.6286 10.4487 71.9744 10.4252C72.4201 10.3951 72.7351 10.3102 72.9194 10.1708C73.1104 10.0309 73.1982 9.84788 73.1829 9.62173C73.1716 9.45544 73.103 9.3298 72.9769 9.24479C72.8509 9.15978 72.6865 9.10075 72.4839 9.06771C72.2878 9.03422 72.0689 9.00895 71.8272 8.99192C71.5851 8.96823 71.3425 8.93789 71.0994 8.9009C70.8559 8.85726 70.631 8.79231 70.4247 8.70606C70.2179 8.61315 70.0486 8.48096 69.9167 8.30949C69.7844 8.13136 69.7079 7.88931 69.6871 7.58334C69.6655 7.26408 69.7364 6.97863 69.8997 6.72702C70.0631 6.4754 70.3035 6.27536 70.6208 6.12691C70.9444 5.97135 71.3323 5.87825 71.7846 5.84761C72.1305 5.82418 72.4826 5.84375 72.841 5.90634C73.2056 5.96183 73.5061 6.0584 73.7426 6.19606L73.3849 6.98204C73.1347 6.83862 72.8778 6.74577 72.6144 6.70348C72.3509 6.66119 72.0895 6.64884 71.8301 6.66641C71.411 6.6948 71.1031 6.78581 70.9064 6.93946C70.7092 7.08646 70.6178 7.26638 70.6323 7.47923C70.6444 7.65881 70.7137 7.79444 70.8402 7.8861C70.9729 7.97066 71.1375 8.03301 71.334 8.07315C71.5371 8.11285 71.7598 8.14454 72.002 8.16822C72.2437 8.18526 72.4863 8.2156 72.7298 8.25924C72.9728 8.29623 73.1942 8.35808 73.3938 8.44478C73.6001 8.53103 73.7692 8.6599 73.9011 8.83138C74.0397 9.0024 74.1191 9.23758 74.1394 9.53689C74.161 9.85616 74.0866 10.1385 73.9161 10.3839C73.7456 10.6293 73.4953 10.83 73.1651 10.9861C72.8344 11.1354 72.433 11.2261 71.9607 11.2581ZM77.5576 10.8789C77.1053 10.9096 76.7006 10.8535 76.3435 10.7106C75.993 10.5673 75.7098 10.3326 75.4939 10.0064C75.2843 9.67315 75.1619 9.24712 75.1267 8.7283L74.9206 5.68528L75.8784 5.62039L76.0771 8.55367C76.1122 9.07248 76.2616 9.45325 76.5253 9.69599C76.7957 9.93827 77.157 10.0441 77.6093 10.0135C77.9418 9.99092 78.2267 9.90481 78.4638 9.75511C78.7004 9.59875 78.8764 9.38637 78.9919 9.11795C79.1069 8.84288 79.1518 8.51911 79.1266 8.14663L78.9414 5.4129L79.8992 5.34801L80.2574 10.6359L79.3495 10.6974L79.2528 9.27067L79.4282 9.63966C79.2791 10.0039 79.0382 10.2942 78.7054 10.5105C78.3726 10.7268 77.99 10.8496 77.5576 10.8789ZM84.433 4.99076C84.8653 4.96147 85.2501 5.01893 85.5873 5.16313C85.9311 5.30689 86.2076 5.54207 86.4168 5.86868C86.6261 6.19528 86.7482 6.61799 86.7834 7.1368L86.9895 10.1798L86.0317 10.2447L85.833 7.31144C85.7983 6.79928 85.6458 6.42206 85.3755 6.17977C85.1118 5.93704 84.7538 5.83099 84.3015 5.86163C83.9623 5.88461 83.6708 5.97118 83.4271 6.12133C83.1833 6.27148 83.0004 6.48099 82.8783 6.74986C82.7628 7.01828 82.7182 7.34538 82.7443 7.73116L82.9288 10.4549L81.971 10.5198L81.6128 5.23192L82.5307 5.16974L82.6274 6.59647L82.452 6.22748C82.6015 5.86989 82.8493 5.58248 83.1954 5.36526C83.5416 5.14803 83.9541 5.0232 84.433 4.99076ZM90.3614 10.653L100.339 9.97712L99.6627 -1.60563e-05L89.6855 0.675875L90.3614 10.653Z" fill="black"/>
</svg>
