<svg width="20" height="20" viewBox="0 0 20 20" fill="none" xmlns="http://www.w3.org/2000/svg">
<path fill-rule="evenodd" clip-rule="evenodd" d="M17.709 10.0001C17.709 5.74289 14.2578 2.29175 10.0007 2.29175C5.74348 2.29175 2.29232 5.74289 2.29232 10.0001C2.29232 14.2572 5.74348 17.7084 10.0007 17.7084C14.2578 17.7084 17.709 14.2572 17.709 10.0001ZM10.0007 1.04175C14.9482 1.04175 18.959 5.05253 18.959 10.0001C18.959 14.9477 14.9482 18.9584 10.0007 18.9584C5.05307 18.9584 1.04232 14.9477 1.04232 10.0001C1.04232 5.05253 5.05307 1.04175 10.0007 1.04175ZM12.9426 8.30814C13.1867 8.55225 13.1867 8.94791 12.9426 9.192L10.4426 11.692C10.1985 11.9361 9.80282 11.9361 9.55873 11.692L7.05873 9.192C6.81465 8.94791 6.81465 8.55225 7.05873 8.30814C7.30282 8.06406 7.69848 8.06406 7.94257 8.30814L10.0007 10.3662L12.0587 8.30814C12.3028 8.06406 12.6985 8.06406 12.9426 8.30814Z" fill="#101010" fill-opacity="0.4"/>
</svg>
