<svg width="17" height="17" viewBox="0 0 17 17" fill="none" xmlns="http://www.w3.org/2000/svg">
<path d="M8.06078 11.5868C8.33901 11.5868 8.56457 11.8123 8.56457 12.0906C8.56457 12.3688 8.33901 12.5944 8.06078 12.5944C7.78256 12.5944 7.557 12.3688 7.557 12.0906C7.557 11.8123 7.78256 11.5868 8.06078 11.5868Z" stroke="#373636" stroke-width="0.863636" stroke-linecap="round" stroke-linejoin="round"/>
<path d="M8.06078 7.55675C8.33901 7.55675 8.56457 7.78231 8.56457 8.06054C8.56457 8.33876 8.33901 8.56433 8.06078 8.56433C7.78256 8.56433 7.557 8.33876 7.557 8.06054C7.557 7.78231 7.78256 7.55675 8.06078 7.55675Z" stroke="#373636" stroke-width="0.863636" stroke-linecap="round" stroke-linejoin="round"/>
<path d="M8.06078 3.52623C8.33901 3.52623 8.56457 3.7518 8.56457 4.03002C8.56457 4.30825 8.33901 4.53381 8.06078 4.53381C7.78256 4.53381 7.557 4.30825 7.557 4.03002C7.557 3.7518 7.78256 3.52623 8.06078 3.52623Z" stroke="#373636" stroke-width="0.863636" stroke-linecap="round" stroke-linejoin="round"/>
</svg>
