<svg width="44" height="44" viewBox="0 0 44 44" fill="none" xmlns="http://www.w3.org/2000/svg">
<path d="M40.2695 19.7398L32.5351 26.4137L34.8915 36.3945C35.0215 36.9363 34.988 37.5045 34.7953 38.0273C34.6025 38.5501 34.2592 39.004 33.8086 39.3318C33.358 39.6595 32.8203 39.8464 32.2636 39.8687C31.7069 39.8911 31.156 39.7479 30.6806 39.4573L22.0009 34.1155L13.316 39.4573C12.8407 39.7462 12.2905 39.888 11.7347 39.8649C11.1789 39.8417 10.6424 39.6546 10.1927 39.3271C9.74305 38.9997 9.40033 38.5465 9.20771 38.0246C9.01508 37.5028 8.98117 36.9356 9.11024 36.3945L11.4752 26.4137L3.74087 19.7398C3.32029 19.3763 3.01612 18.897 2.86634 18.3617C2.71656 17.8263 2.72782 17.2587 2.89871 16.7297C3.06959 16.2008 3.39254 15.7339 3.8272 15.3873C4.26187 15.0408 4.78899 14.83 5.34274 14.7812L15.4834 13.9631L19.3952 4.49625C19.607 3.98031 19.9674 3.53899 20.4306 3.22839C20.8938 2.91779 21.4389 2.75195 21.9966 2.75195C22.5543 2.75195 23.0994 2.91779 23.5626 3.22839C24.0258 3.53899 24.3862 3.98031 24.5979 4.49625L28.5081 13.9631L38.6487 14.7812C39.2035 14.8282 39.7322 15.0378 40.1684 15.3838C40.6047 15.7299 40.9291 16.197 41.1011 16.7266C41.273 17.2562 41.2848 17.8248 41.1351 18.3611C40.9853 18.8975 40.6806 19.3776 40.2591 19.7416L40.2695 19.7398Z" fill="#06C44F"/>
</svg>
