<svg width="20" height="20" viewBox="0 0 20 20" fill="none" xmlns="http://www.w3.org/2000/svg">
<path d="M9.75 0C7.82164 0 5.93657 0.571828 4.33319 1.64317C2.72982 2.71451 1.48013 4.23726 0.742179 6.01884C0.00422452 7.80042 -0.188858 9.76082 0.187348 11.6521C0.563554 13.5434 1.49215 15.2807 2.85571 16.6443C4.21928 18.0079 5.95656 18.9365 7.84787 19.3127C9.73919 19.6889 11.6996 19.4958 13.4812 18.7578C15.2627 18.0199 16.7855 16.7702 17.8568 15.1668C18.9282 13.5634 19.5 11.6784 19.5 9.75C19.4973 7.16498 18.4692 4.68661 16.6413 2.85872C14.8134 1.03084 12.335 0.00272983 9.75 0ZM9.75 18C8.11831 18 6.52326 17.5161 5.16655 16.6096C3.80984 15.7031 2.75242 14.4146 2.128 12.9071C1.50358 11.3996 1.3402 9.74085 1.65853 8.1405C1.97685 6.54016 2.76259 5.07015 3.91637 3.91637C5.07016 2.76259 6.54017 1.97685 8.14051 1.65852C9.74085 1.34019 11.3997 1.50357 12.9071 2.12799C14.4146 2.75242 15.7031 3.80984 16.6096 5.16655C17.5161 6.52325 18 8.1183 18 9.75C17.9975 11.9373 17.1275 14.0343 15.5809 15.5809C14.0343 17.1275 11.9373 17.9975 9.75 18ZM5.25 7.875C5.25 7.6525 5.31598 7.43499 5.4396 7.24998C5.56322 7.06498 5.73892 6.92078 5.94449 6.83564C6.15005 6.75049 6.37625 6.72821 6.59448 6.77162C6.81271 6.81502 7.01317 6.92217 7.1705 7.0795C7.32783 7.23684 7.43498 7.43729 7.47839 7.65552C7.5218 7.87375 7.49952 8.09995 7.41437 8.30552C7.32922 8.51109 7.18503 8.68679 7.00002 8.8104C6.81502 8.93402 6.59751 9 6.375 9C6.07664 9 5.79049 8.88147 5.57951 8.6705C5.36853 8.45952 5.25 8.17337 5.25 7.875ZM12 7.875C12 7.6525 12.066 7.43499 12.1896 7.24998C12.3132 7.06498 12.4889 6.92078 12.6945 6.83564C12.9001 6.75049 13.1263 6.72821 13.3445 6.77162C13.5627 6.81502 13.7632 6.92217 13.9205 7.0795C14.0778 7.23684 14.185 7.43729 14.2284 7.65552C14.2718 7.87375 14.2495 8.09995 14.1644 8.30552C14.0792 8.51109 13.935 8.68679 13.75 8.8104C13.565 8.93402 13.3475 9 13.125 9C12.8266 9 12.5405 8.88147 12.3295 8.6705C12.1185 8.45952 12 8.17337 12 7.875ZM15 13.5C15 13.6989 14.921 13.8897 14.7803 14.0303C14.6397 14.171 14.4489 14.25 14.25 14.25C13.3125 14.25 12.8381 13.6181 12.525 13.2C12.2438 12.825 12.1575 12.75 12 12.75C11.8425 12.75 11.7591 12.8212 11.475 13.2C11.1619 13.6181 10.6875 14.25 9.75 14.25C8.8125 14.25 8.33813 13.6181 8.025 13.2C7.74375 12.825 7.6575 12.75 7.5 12.75C7.3425 12.75 7.25907 12.8212 6.975 13.2C6.66188 13.6181 6.1875 14.25 5.25 14.25C5.05109 14.25 4.86033 14.171 4.71967 14.0303C4.57902 13.8897 4.5 13.6989 4.5 13.5C4.5 13.3011 4.57902 13.1103 4.71967 12.9697C4.86033 12.829 5.05109 12.75 5.25 12.75C5.4075 12.75 5.49094 12.6788 5.775 12.3C6.08813 11.8819 6.5625 11.25 7.5 11.25C8.4375 11.25 8.91188 11.8819 9.225 12.3C9.50625 12.675 9.5925 12.75 9.75 12.75C9.9075 12.75 9.99094 12.6788 10.275 12.3C10.5881 11.8819 11.0625 11.25 12 11.25C12.9375 11.25 13.4119 11.8819 13.725 12.3C14.0063 12.675 14.0925 12.75 14.25 12.75C14.4489 12.75 14.6397 12.829 14.7803 12.9697C14.921 13.1103 15 13.3011 15 13.5Z" fill="#727775"/>
</svg>
