<svg width="15" height="16" viewBox="0 0 15 16" fill="none" xmlns="http://www.w3.org/2000/svg">
<path fill-rule="evenodd" clip-rule="evenodd" d="M1.61514 5.83333C1.61514 4.28624 2.22972 2.80251 3.32368 1.70854C4.41764 0.614582 5.90137 0 7.44847 0C8.99557 0 10.4793 0.614582 11.5733 1.70854C12.6672 2.80251 13.2818 4.28624 13.2818 5.83333V8.97L14.8001 12.0067C14.87 12.1464 14.903 12.3017 14.896 12.4579C14.889 12.614 14.8422 12.7657 14.76 12.8986C14.6779 13.0315 14.5631 13.1413 14.4266 13.2173C14.2901 13.2934 14.1364 13.3334 13.9801 13.3333H10.6768C10.4914 14.0485 10.0738 14.6819 9.48952 15.1341C8.90522 15.5863 8.1873 15.8316 7.44847 15.8316C6.70964 15.8316 5.99172 15.5863 5.40742 15.1341C4.82311 14.6819 4.4055 14.0485 4.22014 13.3333H0.916803C0.760534 13.3334 0.606854 13.2934 0.470358 13.2173C0.333863 13.1413 0.219084 13.0315 0.136923 12.8986C0.0547626 12.7657 0.00794809 12.614 0.000926074 12.4579C-0.00609595 12.3017 0.0269077 12.1464 0.0968023 12.0067L1.61514 8.97V5.83333ZM6.00514 13.3333C6.15142 13.5867 6.36182 13.7971 6.61517 13.9433C6.86853 14.0896 7.15592 14.1666 7.44847 14.1666C7.74102 14.1666 8.02841 14.0896 8.28177 13.9433C8.53512 13.7971 8.74552 13.5867 8.8918 13.3333H6.00514ZM7.44847 1.66667C6.3434 1.66667 5.28359 2.10565 4.50219 2.88706C3.72079 3.66846 3.2818 4.72826 3.2818 5.83333V8.97C3.28179 9.22861 3.22159 9.48367 3.10597 9.715L2.13097 11.6667H12.7668L11.7918 9.715C11.6759 9.48373 11.6154 9.22867 11.6151 8.97V5.83333C11.6151 4.72826 11.1761 3.66846 10.3947 2.88706C9.61335 2.10565 8.55354 1.66667 7.44847 1.66667Z" fill="black"/>
</svg>
