<svg width="20" height="21" viewBox="0 0 20 21" fill="none" xmlns="http://www.w3.org/2000/svg">
<path d="M14.2028 10.8218C14.2028 11.0443 14.1368 11.2618 14.0132 11.4468C13.8896 11.6318 13.7139 11.776 13.5083 11.8612C13.3027 11.9463 13.0766 11.9686 12.8583 11.9252C12.6401 11.8818 12.4396 11.7747 12.2823 11.6173C12.125 11.46 12.0178 11.2595 11.9744 11.0413C11.931 10.8231 11.9533 10.5969 12.0384 10.3913C12.1236 10.1857 12.2678 10.01 12.4528 9.88642C12.6378 9.7628 12.8553 9.69682 13.0778 9.69682C13.3762 9.69682 13.6623 9.81535 13.8733 10.0263C14.0843 10.2373 14.2028 10.5235 14.2028 10.8218ZM9.7028 6.32182C9.7028 6.09932 9.63682 5.88181 9.5132 5.69681C9.38958 5.5118 9.21388 5.36761 9.00832 5.28246C8.80275 5.19731 8.57655 5.17503 8.35832 5.21844C8.14009 5.26185 7.93964 5.369 7.7823 5.52633C7.62497 5.68366 7.51782 5.88412 7.47441 6.10235C7.43101 6.32058 7.45328 6.54678 7.53843 6.75234C7.62358 6.95791 7.76778 7.13361 7.95278 7.25723C8.13779 7.38084 8.35529 7.44682 8.5778 7.44682C8.87617 7.44682 9.16231 7.3283 9.37329 7.11732C9.58427 6.90634 9.7028 6.62019 9.7028 6.32182ZM16.5465 2.75932C14.7391 1.00211 12.3214 0.0132188 9.80063 0.000131566C7.27985 -0.0129557 4.85197 0.950782 3.02642 2.68913C1.20087 4.42748 0.119544 6.80532 0.00933181 9.32372C-0.100881 11.8421 0.768586 14.3053 2.4353 16.1965C2.50047 16.2717 2.57995 16.3331 2.66911 16.3773C2.75826 16.4215 2.85532 16.4475 2.95461 16.4537C3.05391 16.46 3.15346 16.4465 3.24748 16.4139C3.34149 16.3814 3.42809 16.3304 3.50222 16.2641C3.57635 16.1977 3.63654 16.1173 3.67928 16.0274C3.72202 15.9376 3.74645 15.8401 3.75116 15.7407C3.75587 15.6413 3.74075 15.542 3.7067 15.4485C3.67264 15.355 3.62033 15.2693 3.5528 15.1962C2.49117 14.0091 1.79581 12.5401 1.55066 10.9665C1.30551 9.39297 1.52105 7.78208 2.17125 6.3283C2.82145 4.87452 3.87853 3.64001 5.21489 2.77377C6.55125 1.90752 8.10977 1.44658 9.70233 1.44658C11.2949 1.44658 12.8534 1.90752 14.1898 2.77377C15.5261 3.64001 16.5832 4.87452 17.2334 6.3283C17.8836 7.78208 18.0991 9.39297 17.854 10.9665C17.6088 12.5401 16.9135 14.0091 15.8519 15.1962C15.7192 15.3445 15.6509 15.5394 15.662 15.7381C15.6731 15.9368 15.7626 16.1229 15.9109 16.2556C16.0592 16.3882 16.2542 16.4565 16.4528 16.4454C16.6515 16.4344 16.8376 16.3448 16.9703 16.1965C18.6376 14.3303 19.5235 11.8945 19.4446 9.39321C19.3658 6.89193 18.3281 4.51675 16.5465 2.75932ZM11.9528 13.4468H10.4528C8.41467 13.4468 5.9528 11.7743 5.9528 9.69682C5.953 9.48702 5.97025 9.27758 6.00436 9.07057C6.02161 8.97301 6.01937 8.873 5.99775 8.77631C5.97613 8.67962 5.93556 8.58817 5.8784 8.50725C5.82124 8.42633 5.74861 8.35753 5.66471 8.30484C5.5808 8.25214 5.48729 8.2166 5.38958 8.20025C5.29186 8.1839 5.19187 8.18707 5.09538 8.20959C4.9989 8.2321 4.90783 8.27351 4.82744 8.33142C4.74705 8.38933 4.67893 8.4626 4.62702 8.54699C4.57511 8.63137 4.54043 8.72521 4.52499 8.82307C4.47699 9.11185 4.45285 9.40409 4.4528 9.69682C4.4528 11.0918 5.15217 12.4278 6.42155 13.4609C7.58405 14.4049 9.05311 14.9468 10.4528 14.9468H11.9528C12.1517 14.9468 12.3425 15.0258 12.4831 15.1665C12.6238 15.3071 12.7028 15.4979 12.7028 15.6968C12.7028 15.8957 12.6238 16.0865 12.4831 16.2272C12.3425 16.3678 12.1517 16.4468 11.9528 16.4468H6.7028C6.10606 16.4468 5.53376 16.6839 5.11181 17.1058C4.68985 17.5278 4.4528 18.1001 4.4528 18.6968C4.4528 19.2936 4.68985 19.8659 5.11181 20.2878C5.53376 20.7098 6.10606 20.9468 6.7028 20.9468C6.90171 20.9468 7.09248 20.8678 7.23313 20.7272C7.37378 20.5865 7.4528 20.3957 7.4528 20.1968C7.4528 19.9979 7.37378 19.8071 7.23313 19.6665C7.09248 19.5258 6.90171 19.4468 6.7028 19.4468C6.50389 19.4468 6.31312 19.3678 6.17247 19.2272C6.03182 19.0865 5.9528 18.8957 5.9528 18.6968C5.9528 18.4979 6.03182 18.3071 6.17247 18.1665C6.31312 18.0258 6.50389 17.9468 6.7028 17.9468H11.9528C12.5495 17.9468 13.1218 17.7098 13.5438 17.2878C13.9657 16.8659 14.2028 16.2936 14.2028 15.6968C14.2028 15.1001 13.9657 14.5278 13.5438 14.1058C13.1218 13.6839 12.5495 13.4468 11.9528 13.4468Z" fill="#06C44F"/>
</svg>
