<svg width="16" height="16" viewBox="0 0 16 16" fill="none" xmlns="http://www.w3.org/2000/svg">
<path fill-rule="evenodd" clip-rule="evenodd" d="M7.9474 0C3.55817 0 0 3.55817 0 7.9474C0 9.9261 0.723139 11.7359 1.91956 13.127L0.923299 14.1232C0.688987 14.3576 0.688987 14.7375 0.923299 14.9717C1.15762 15.2061 1.53752 15.2061 1.77183 14.9717L2.76811 13.9755C4.15914 15.1718 5.96883 15.8948 7.9474 15.8948C12.3366 15.8948 15.8948 12.3365 15.8948 7.9474C15.8948 5.96883 15.1718 4.15913 13.9755 2.76811L14.9718 1.77179C15.2061 1.53747 15.2061 1.15757 14.9718 0.923262C14.7375 0.68895 14.3576 0.68895 14.1233 0.923262L13.127 1.91956C11.736 0.723138 9.92611 0 7.9474 0ZM12.3182 2.72834C11.1356 1.73693 9.61125 1.13999 7.9474 1.13999C4.18778 1.13999 1.14 4.18778 1.14 7.9474C1.14 9.61125 1.73694 11.1357 2.72834 12.3182L12.3182 2.72834ZM3.5769 13.1667C4.75939 14.1579 6.2837 14.7548 7.9474 14.7548C11.7069 14.7548 14.7548 11.707 14.7548 7.9474C14.7548 6.2837 14.1579 4.75939 13.1667 3.57689L3.5769 13.1667Z" fill="black"/>
</svg>
