<svg width="20" height="20" viewBox="0 0 20 20" fill="none" xmlns="http://www.w3.org/2000/svg">
<path d="M14.1488 12.3718C13.1841 14.0396 11.5809 14.9968 9.75 14.9968C7.91906 14.9968 6.31594 14.0405 5.35031 12.3718C5.30107 12.2865 5.26911 12.1923 5.25626 12.0946C5.24341 11.9969 5.24993 11.8977 5.27544 11.8025C5.30094 11.7074 5.34494 11.6182 5.40492 11.54C5.4649 11.4619 5.53968 11.3963 5.625 11.3471C5.71032 11.2978 5.8045 11.2659 5.90217 11.253C5.99984 11.2402 6.09908 11.2467 6.19423 11.2722C6.28938 11.2977 6.37858 11.3417 6.45673 11.4017C6.53487 11.4617 6.60044 11.5365 6.64969 11.6218C7.34906 12.8321 8.44969 13.4968 9.75 13.4968C11.0503 13.4968 12.1509 12.8312 12.8512 11.6218C12.8981 11.5321 12.9627 11.4529 13.041 11.3889C13.1193 11.3248 13.2097 11.2773 13.3068 11.2491C13.404 11.2209 13.5058 11.2127 13.6062 11.2249C13.7067 11.2371 13.8036 11.2695 13.8911 11.3201C13.9787 11.3707 14.0552 11.4385 14.1158 11.5195C14.1765 11.6004 14.2202 11.6927 14.2443 11.791C14.2683 11.8892 14.2723 11.9913 14.2559 12.0911C14.2395 12.191 14.203 12.2864 14.1488 12.3718ZM19.5 9.74678C19.5005 10.7177 19.3564 11.6833 19.0725 12.6118C19.0363 12.729 18.9719 12.8355 18.885 12.9221L12.9253 18.8818C12.8393 18.9689 12.733 19.0333 12.6159 19.0693C10.6543 19.6725 8.55237 19.6414 6.60948 18.9804C4.66658 18.3193 2.98181 17.062 1.79515 15.3876C0.608486 13.7132 -0.0195606 11.707 0.0004644 9.65487C0.0204894 7.60269 0.687565 5.60915 1.90668 3.95821C3.12579 2.30727 4.83477 1.08312 6.7902 0.46011C8.74562 -0.162899 10.8478 -0.15299 12.7972 0.488424C14.7467 1.12984 16.4441 2.37005 17.6476 4.03241C18.8511 5.69477 19.4993 7.6945 19.5 9.74678ZM18 9.74678C17.9979 8.02084 17.4538 6.33916 16.4446 4.93903C15.4354 3.5389 14.012 2.49103 12.3753 1.94328C10.7386 1.39553 8.97119 1.37556 7.32253 1.8862C5.67386 2.39683 4.22716 3.41229 3.18659 4.78926C2.14601 6.16623 1.5641 7.8352 1.52297 9.56064C1.48184 11.2861 1.98356 12.9809 2.95734 14.4059C3.93112 15.8309 5.32779 16.9141 6.95025 17.5027C8.57271 18.0913 10.339 18.1556 12 17.6865L17.6897 11.9968C17.8963 11.2647 18.0007 10.5075 18 9.74678ZM6.375 8.99678C6.5975 8.99678 6.81501 8.9308 7.00002 8.80718C7.18502 8.68356 7.32922 8.50786 7.41436 8.3023C7.49951 8.09673 7.52179 7.87053 7.47838 7.6523C7.43498 7.43407 7.32783 7.23361 7.1705 7.07628C7.01316 6.91895 6.81271 6.8118 6.59448 6.76839C6.37625 6.72498 6.15005 6.74726 5.94448 6.83241C5.73891 6.91756 5.56321 7.06175 5.4396 7.24676C5.31598 7.43177 5.25 7.64927 5.25 7.87178C5.25 8.17015 5.36853 8.45629 5.5795 8.66727C5.79048 8.87825 6.07663 8.99678 6.375 8.99678ZM13.125 6.74678C12.9025 6.74678 12.685 6.81276 12.5 6.93637C12.315 7.05999 12.1708 7.23569 12.0856 7.44126C12.0005 7.64682 11.9782 7.87302 12.0216 8.09125C12.065 8.30948 12.1722 8.50994 12.3295 8.66727C12.4868 8.82461 12.6873 8.93175 12.9055 8.97516C13.1238 9.01857 13.35 8.99629 13.5555 8.91114C13.7611 8.82599 13.9368 8.6818 14.0604 8.49679C14.184 8.31179 14.25 8.09428 14.25 7.87178C14.25 7.57341 14.1315 7.28726 13.9205 7.07628C13.7095 6.8653 13.4234 6.74678 13.125 6.74678Z" fill="#727775"/>
</svg>
