<svg width="20" height="24" viewBox="0 0 20 24" fill="none" xmlns="http://www.w3.org/2000/svg">
<path d="M12.0495 0.957621V0.956121C12.375 4.53362 14.244 6.39512 16.029 8.17112C17.805 9.93812 19.497 11.6226 19.497 14.8281C19.497 20.0781 14.997 23.8281 9.747 23.8281C4.497 23.8281 0 20.0961 0 14.8281C0 12.8811 0.804 10.9881 2.1375 9.89912C2.7015 9.43712 3.4305 9.89912 3.69 10.5801C4.44 12.5586 6.1215 12.4566 6.75 11.8281C7.173 11.4051 7.2615 10.6116 6.7455 9.57812C4.26 4.60862 8.3025 0.953121 10.905 0.0471209C11.49 -0.158379 11.994 0.338121 12.0495 0.957621ZM9.747 21.5781C13.995 21.5781 17.247 18.6081 17.247 14.8281C17.247 12.6336 16.227 11.5431 14.4285 9.75362L14.3745 9.69812C12.855 8.18612 10.9245 6.26312 10.1235 3.04712C9.6405 3.43112 9.1785 3.91562 8.8275 4.47662C8.1795 5.52062 7.896 6.84662 8.7585 8.57162C9.468 9.99212 9.7635 11.9976 8.3415 13.4196C7.4265 14.3346 6.024 14.6796 4.737 14.3691C3.90129 14.164 3.14914 13.7062 2.583 13.0581C2.36124 13.6218 2.24825 14.2224 2.25 14.8281C2.25 18.6231 5.496 21.5781 9.747 21.5781Z" fill="#727775"/>
</svg>
