<svg width="20" height="20" viewBox="0 0 20 20" fill="none" xmlns="http://www.w3.org/2000/svg">
<path d="M9.75 0C7.82164 0 5.93657 0.571828 4.33319 1.64317C2.72982 2.71451 1.48013 4.23726 0.742179 6.01884C0.00422452 7.80042 -0.188858 9.76082 0.187348 11.6521C0.563554 13.5434 1.49215 15.2807 2.85571 16.6443C4.21928 18.0079 5.95656 18.9365 7.84787 19.3127C9.73919 19.6889 11.6996 19.4958 13.4812 18.7578C15.2627 18.0199 16.7855 16.7702 17.8568 15.1668C18.9282 13.5634 19.5 11.6784 19.5 9.75C19.4973 7.16498 18.4692 4.68661 16.6413 2.85872C14.8134 1.03084 12.335 0.00272983 9.75 0ZM9.75 18C8.11831 18 6.52326 17.5161 5.16655 16.6096C3.80984 15.7031 2.75242 14.4146 2.128 12.9071C1.50358 11.3996 1.3402 9.74085 1.65853 8.1405C1.97685 6.54016 2.76259 5.07015 3.91637 3.91637C5.07016 2.76259 6.54017 1.97685 8.14051 1.65852C9.74085 1.34019 11.3997 1.50357 12.9071 2.12799C14.4146 2.75242 15.7031 3.80984 16.6096 5.16655C17.5161 6.52325 18 8.1183 18 9.75C17.9975 11.9373 17.1275 14.0343 15.5809 15.5809C14.0343 17.1275 11.9373 17.9975 9.75 18ZM14.25 12.75C14.25 12.9489 14.171 13.1397 14.0303 13.2803C13.8897 13.421 13.6989 13.5 13.5 13.5H6C5.80109 13.5 5.61033 13.421 5.46967 13.2803C5.32902 13.1397 5.25 12.9489 5.25 12.75C5.25 12.5511 5.32902 12.3603 5.46967 12.2197C5.61033 12.079 5.80109 12 6 12H13.5C13.6989 12 13.8897 12.079 14.0303 12.2197C14.171 12.3603 14.25 12.5511 14.25 12.75ZM5.25 7.875C5.25 7.6525 5.31598 7.43499 5.4396 7.24998C5.56322 7.06498 5.73892 6.92078 5.94449 6.83564C6.15005 6.75049 6.37625 6.72821 6.59448 6.77162C6.81271 6.81502 7.01317 6.92217 7.1705 7.0795C7.32783 7.23684 7.43498 7.43729 7.47839 7.65552C7.5218 7.87375 7.49952 8.09995 7.41437 8.30552C7.32922 8.51109 7.18503 8.68679 7.00002 8.8104C6.81502 8.93402 6.59751 9 6.375 9C6.07664 9 5.79049 8.88147 5.57951 8.6705C5.36853 8.45952 5.25 8.17337 5.25 7.875ZM14.25 7.875C14.25 8.0975 14.184 8.31501 14.0604 8.50002C13.9368 8.68502 13.7611 8.82922 13.5555 8.91436C13.35 8.99951 13.1238 9.02179 12.9055 8.97838C12.6873 8.93498 12.4868 8.82783 12.3295 8.6705C12.1722 8.51316 12.065 8.31271 12.0216 8.09448C11.9782 7.87625 12.0005 7.65005 12.0856 7.44448C12.1708 7.23891 12.315 7.06321 12.5 6.9396C12.685 6.81598 12.9025 6.75 13.125 6.75C13.4234 6.75 13.7095 6.86853 13.9205 7.0795C14.1315 7.29048 14.25 7.57663 14.25 7.875Z" fill="#727775"/>
</svg>
