<svg width="19" height="23" viewBox="0 0 19 23" fill="none" xmlns="http://www.w3.org/2000/svg">
<path d="M16.75 13.3535C16.75 14.8369 16.3101 16.2869 15.486 17.5203C14.6619 18.7537 13.4906 19.715 12.1201 20.2826C10.7497 20.8503 9.24168 20.9988 7.78683 20.7094C6.33197 20.42 4.9956 19.7057 3.9467 18.6568C2.89781 17.6079 2.1835 16.2716 1.89411 14.8167C1.60473 13.3618 1.75325 11.8538 2.32091 10.4834C2.88856 9.11294 3.84986 7.9416 5.08323 7.11749C6.3166 6.29338 7.76664 5.85352 9.25 5.85352H12.25V9.60352L16.75 5.10352L12.25 0.603516V4.35352H9.25C7.46997 4.35352 5.72991 4.88136 4.24987 5.87029C2.76983 6.85922 1.61628 8.26483 0.935088 9.90937C0.2539 11.5539 0.0756695 13.3635 0.422937 15.1093C0.770204 16.8552 1.62737 18.4588 2.88604 19.7175C4.14472 20.9762 5.74836 21.8333 7.49419 22.1806C9.24002 22.5279 11.0496 22.3496 12.6942 21.6684C14.3387 20.9872 15.7443 19.8337 16.7332 18.3536C17.7222 16.8736 18.25 15.1335 18.25 13.3535H16.75Z" fill="#06C44F" stroke="#06C44F" stroke-width="0.5"/>
</svg>
