<svg width="22" height="22" viewBox="0 0 22 22" fill="none" xmlns="http://www.w3.org/2000/svg">
<path d="M1.01603 19.3031C2.14467 20.9176 7.05753 22.1851 9.37781 19.1625C11.8875 20.3629 16.027 19.9908 19.3972 18.1114C19.8659 17.8501 20.3093 17.5202 20.5808 17.0573C21.1938 16.0123 21.2083 14.5624 20.09 12.4231C18.2255 7.76876 14.8721 3.68317 13.5182 2.04016C13.2402 1.78669 11.4668 1.42672 10.3853 1.08083C9.90761 0.932814 9.01811 0.834684 7.95423 2.23666C7.44987 2.90133 5.1587 4.53374 8.06578 5.6315C8.51616 5.7461 8.84723 5.95743 10.9019 5.58208C11.1695 5.53565 11.8376 5.58208 12.3084 6.40845L13.2917 7.81466C13.3832 7.94556 13.4426 8.09617 13.4608 8.25486C13.6331 9.75374 13.6275 11.6303 14.4632 12.5806C13.1724 11.6472 9.79921 10.5386 7.25761 13.6931M1 11.938C2.2082 10.789 5.71008 8.97396 9.41601 11.5196" stroke="#06C44F" stroke-width="2" stroke-linecap="round" stroke-linejoin="round"/>
</svg>
